<svg xmlns="http://www.w3.org/2000/svg" xmlns:xlink="http://www.w3.org/1999/xlink" preserveAspectRatio="xMidYMid" width="11" height="7" viewBox="0 0 11 7">
  <defs>
    <style>
      .cls-1 {
        fill: #333;
        fill-rule: evenodd;
      }
    </style>
  </defs>
  <path d="M5.493,7.003 C5.493,7.003 5.518,7.003 5.493,7.003 C5.643,7.003 5.768,6.949 5.843,6.841 C5.843,6.841 5.843,6.815 5.869,6.815 C5.894,6.815 5.894,6.787 5.894,6.787 L10.825,1.045 C11.050,0.803 11.050,0.425 10.875,0.156 C10.675,-0.060 10.349,-0.060 10.149,0.156 C10.124,0.183 10.124,0.183 10.124,0.209 L5.500,4.599 L0.887,0.209 C0.712,-0.033 0.386,-0.060 0.186,0.102 C0.161,0.102 0.161,0.129 0.136,0.129 C-0.064,0.398 -0.039,0.776 0.186,1.018 L5.117,6.787 L5.142,6.815 C5.142,6.815 5.142,6.841 5.168,6.841 C5.218,6.949 5.343,7.003 5.493,7.003 C5.468,7.003 5.493,7.003 5.493,7.003 Z" class="cls-1"/>
</svg>
