<svg xmlns="http://www.w3.org/2000/svg" xmlns:xlink="http://www.w3.org/1999/xlink" preserveAspectRatio="xMidYMid" width="11" height="8" viewBox="0 0 11 8">
  <defs>
    <style>
      .cls-1 {
        fill: #fff;
        fill-rule: evenodd;
      }
    </style>
  </defs>
  <path d="M5.493,-0.004 C5.493,-0.004 5.518,-0.004 5.493,-0.004 C5.643,-0.004 5.768,0.051 5.843,0.159 C5.843,0.159 5.843,0.185 5.869,0.185 C5.894,0.185 5.894,0.212 5.894,0.212 L10.825,5.955 C11.050,6.197 11.050,6.575 10.875,6.844 C10.675,7.060 10.349,7.060 10.149,6.844 C10.124,6.817 10.124,6.817 10.124,6.790 L5.500,2.401 L0.887,6.790 C0.712,7.033 0.386,7.060 0.186,6.898 C0.161,6.898 0.161,6.871 0.136,6.871 C-0.064,6.601 -0.039,6.224 0.186,5.982 L5.117,0.212 L5.142,0.185 C5.142,0.185 5.142,0.159 5.168,0.159 C5.218,0.051 5.343,-0.004 5.493,-0.004 C5.468,-0.004 5.493,-0.004 5.493,-0.004 Z" class="cls-1"/>
</svg>
