<svg xmlns="http://www.w3.org/2000/svg" xmlns:xlink="http://www.w3.org/1999/xlink" preserveAspectRatio="xMidYMid" width="10.906" height="6.968" viewBox="0 0 10.906 6.968">
  <defs>
    <style>
      .cls-1 {
        fill: #fff;
        fill-rule: evenodd;
      }
    </style>
  </defs>
  <path d="M5.450,-0.013 C5.450,-0.013 5.474,-0.013 5.450,-0.013 C5.598,-0.013 5.722,0.040 5.797,0.148 C5.797,0.148 5.797,0.175 5.821,0.175 C5.846,0.175 5.846,0.202 5.846,0.202 L10.735,5.903 C10.958,6.144 10.958,6.519 10.785,6.786 C10.586,7.002 10.263,7.002 10.065,6.786 C10.040,6.760 10.040,6.760 10.040,6.733 L5.457,2.375 L0.884,6.733 C0.710,6.975 0.387,7.002 0.189,6.840 C0.164,6.840 0.164,6.813 0.139,6.813 C-0.059,6.546 -0.034,6.171 0.189,5.930 L5.077,0.202 L5.102,0.175 C5.102,0.175 5.102,0.148 5.127,0.148 C5.177,0.040 5.301,-0.013 5.450,-0.013 C5.425,-0.013 5.450,-0.013 5.450,-0.013 Z" class="cls-1"/>
</svg>
