<svg xmlns="http://www.w3.org/2000/svg" xmlns:xlink="http://www.w3.org/1999/xlink" preserveAspectRatio="xMidYMid" width="10.906" height="6.938" viewBox="0 0 10.906 6.938">
  <defs>
    <style>
      .cls-1 {
        fill: #fff;
        fill-rule: evenodd;
      }
    </style>
  </defs>
  <path d="M5.450,6.949 C5.450,6.949 5.474,6.949 5.450,6.949 C5.598,6.949 5.722,6.895 5.797,6.788 C5.797,6.788 5.797,6.762 5.821,6.762 C5.846,6.762 5.846,6.734 5.846,6.734 L10.735,1.033 C10.958,0.791 10.958,0.418 10.785,0.149 C10.586,-0.065 10.263,-0.065 10.065,0.149 C10.040,0.176 10.040,0.176 10.040,0.203 L5.457,4.562 L0.884,0.203 C0.710,-0.038 0.387,-0.065 0.189,0.095 C0.164,0.095 0.164,0.123 0.139,0.123 C-0.059,0.390 -0.034,0.765 0.189,1.006 L5.077,6.734 L5.102,6.762 C5.102,6.762 5.102,6.788 5.127,6.788 C5.177,6.895 5.301,6.949 5.450,6.949 C5.425,6.949 5.450,6.949 5.450,6.949 Z" class="cls-1"/>
</svg>
