<?xml version="1.0" encoding="utf-8"?>
<!-- Generator: Adobe Illustrator 13.0.1, SVG Export Plug-In . SVG Version: 6.00 Build 14948)  -->
<!DOCTYPE svg PUBLIC "-//W3C//DTD SVG 1.1//EN" "http://www.w3.org/Graphics/SVG/1.1/DTD/svg11.dtd">
<svg version="1.1" id="Слой_1" xmlns="http://www.w3.org/2000/svg" xmlns:xlink="http://www.w3.org/1999/xlink" x="0px" y="0px"
	 width="45px" height="51.433px" viewBox="0 0 45 51.433" enable-background="new 0 0 45 51.433" xml:space="preserve">
<path fill="#ED1C24" d="M39.529,0H5.472C2.463,0,0,2.463,0,5.473V45.96c0,3.011,2.462,5.473,5.472,5.473h1.77v-3.126
	c0-2.008,1.465-3.649,3.253-3.649c1.789,0,3.253,1.642,3.253,3.649v3.126h5.578v-6.409c0-2.008,1.465-3.648,3.253-3.648
	c1.79,0,3.254,1.641,3.254,3.648v6.409h6.817v-3.36c0-2.008,1.465-3.649,3.253-3.649s3.254,1.642,3.254,3.649v3.36h0.371
	c3.01,0,5.472-2.462,5.472-5.473V5.473C45,2.463,42.538,0,39.529,0z M5.565,34.966l2.727-2.996l1.153,1.757L5.565,34.966z
	 M10.651,33.161L9.26,31.016l3.87-7.164l2.205,1.007l3.09,4.701l0.435,2.942L10.651,33.161z M20.843,31.842l-0.556-3.497
	l-3.091-4.701l-2.648-1.375l14.607-9.759l2.646,1.377l3.09,4.701l0.559,3.498L20.843,31.842z M37.538,20.89l-0.733-3.383
	l-3.091-4.701l-2.472-1.491l2.603-1.732l2.645,1.376l3.091,4.701l0.56,3.498L37.538,20.89z"/>
</svg>
