<svg xmlns="http://www.w3.org/2000/svg" xmlns:xlink="http://www.w3.org/1999/xlink" preserveAspectRatio="xMidYMid" width="39" height="37.969" viewBox="0 0 39 37.969">
  <defs>
    <style>
      .cls-1 {
        fill: #55c0a6;
        fill-rule: evenodd;
      }
    </style>
  </defs>
  <path d="M37.361,-0.004 L1.625,-0.004 C0.756,-0.004 -0.004,0.760 -0.004,1.634 L-0.004,28.160 C-0.004,29.033 0.756,29.797 1.625,29.797 L8.686,29.797 L8.686,36.347 C8.686,37.002 9.011,37.547 9.554,37.766 C9.772,37.875 10.098,37.984 10.315,37.984 C10.641,37.984 10.967,37.875 11.292,37.657 L22.480,29.688 L37.361,29.688 C38.230,29.688 38.990,28.924 38.990,28.051 L38.990,1.524 C38.990,0.760 38.339,-0.004 37.361,-0.004 L37.361,-0.004 ZM35.732,26.522 L21.937,26.522 C21.611,26.522 21.285,26.631 20.959,26.850 L11.944,33.290 L11.944,28.269 C11.944,27.396 11.184,26.631 10.315,26.631 L3.255,26.631 L3.255,3.380 L35.732,3.380 L35.732,26.522 L35.732,26.522 ZM19.330,17.898 C20.950,17.898 22.263,16.579 22.263,14.951 C22.263,13.323 20.950,12.004 19.330,12.004 C17.711,12.004 16.398,13.323 16.398,14.951 C16.398,16.579 17.711,17.898 19.330,17.898 ZM28.889,17.898 C30.508,17.898 31.821,16.579 31.821,14.951 C31.821,13.323 30.508,12.004 28.889,12.004 C27.269,12.004 25.956,13.323 25.956,14.951 C25.956,16.579 27.269,17.898 28.889,17.898 ZM9.772,17.898 C11.391,17.898 12.704,16.579 12.704,14.951 C12.704,13.323 11.391,12.004 9.772,12.004 C8.152,12.004 6.839,13.323 6.839,14.951 C6.839,16.579 8.152,17.898 9.772,17.898 Z" class="cls-1"/>
</svg>
