<svg xmlns="http://www.w3.org/2000/svg" xmlns:xlink="http://www.w3.org/1999/xlink" preserveAspectRatio="xMidYMid" width="23.406" height="23" viewBox="0 0 23.406 23">
  <defs>
    <style>
      .cls-1 {
        fill: #fff;
        fill-rule: evenodd;
      }
    </style>
  </defs>
  <path d="M22.427,-0.002 L0.976,-0.002 C0.454,-0.002 -0.002,0.461 -0.002,0.990 L-0.002,17.060 C-0.002,17.590 0.454,18.052 0.976,18.052 L5.214,18.052 L5.214,22.021 C5.214,22.418 5.409,22.748 5.735,22.880 C5.866,22.946 6.061,23.012 6.192,23.012 C6.387,23.012 6.583,22.946 6.778,22.814 L13.494,17.986 L22.427,17.986 C22.948,17.986 23.405,17.523 23.405,16.994 L23.405,0.923 C23.405,0.461 23.014,-0.002 22.427,-0.002 L22.427,-0.002 ZM21.449,16.068 L13.168,16.068 C12.973,16.068 12.777,16.134 12.581,16.267 L7.170,20.169 L7.170,17.127 C7.170,16.597 6.713,16.134 6.192,16.134 L1.954,16.134 L1.954,2.048 L21.449,2.048 L21.449,16.068 L21.449,16.068 ZM11.603,10.844 C12.576,10.844 13.364,10.044 13.364,9.058 C13.364,8.072 12.576,7.272 11.603,7.272 C10.631,7.272 9.843,8.072 9.843,9.058 C9.843,10.044 10.631,10.844 11.603,10.844 ZM17.341,10.844 C18.313,10.844 19.102,10.044 19.102,9.058 C19.102,8.072 18.313,7.272 17.341,7.272 C16.369,7.272 15.581,8.072 15.581,9.058 C15.581,10.044 16.369,10.844 17.341,10.844 ZM5.866,10.844 C6.838,10.844 7.626,10.044 7.626,9.058 C7.626,8.072 6.838,7.272 5.866,7.272 C4.893,7.272 4.105,8.072 4.105,9.058 C4.105,10.044 4.893,10.844 5.866,10.844 Z" class="cls-1"/>
</svg>
