<svg xmlns="http://www.w3.org/2000/svg" xmlns:xlink="http://www.w3.org/1999/xlink" preserveAspectRatio="xMidYMid" width="30" height="27" viewBox="0 0 30 27">
  <defs>
    <style>
      .cls-1 {
        fill: #f2ae1c;
        fill-rule: evenodd;
      }
    </style>
  </defs>
  <path d="M17.434,12.388 L22.544,12.388 L22.544,14.459 L17.334,14.459 L15.330,14.459 L15.330,12.513 L15.330,7.358 L17.434,7.358 L17.434,12.388 ZM16.374,27.000 C9.230,27.000 3.365,21.560 2.720,14.755 L-0.000,14.755 L4.442,7.180 L8.884,14.755 L6.294,14.755 C6.516,16.234 7.141,18.006 8.137,19.354 C9.988,21.696 12.855,23.203 16.104,23.203 C21.695,23.203 26.183,18.742 26.183,13.238 C26.183,7.821 21.943,3.417 16.232,3.278 L16.232,-0.002 C23.747,0.020 29.998,6.055 29.999,13.499 C29.999,20.955 23.949,27.000 16.374,27.000 Z" class="cls-1"/>
</svg>
