<svg xmlns="http://www.w3.org/2000/svg" xmlns:xlink="http://www.w3.org/1999/xlink" preserveAspectRatio="xMidYMid" width="29" height="29" viewBox="0 0 29 29">
  <defs>
    <style>
      .cls-1 {
        fill: #f2ae1c;
        fill-rule: evenodd;
      }
    </style>
  </defs>
  <path d="M27.010,12.283 L22.823,16.478 C22.998,14.905 22.750,13.316 22.070,11.863 L24.330,9.598 C25.467,8.459 25.467,6.709 24.330,5.570 C23.194,4.431 21.448,4.431 20.311,5.570 L13.613,12.283 C12.477,13.422 12.477,15.171 13.613,16.310 C13.850,16.548 14.129,16.717 14.409,16.855 L11.646,19.624 C11.388,19.433 11.168,19.229 10.934,18.995 C8.360,16.415 8.360,12.177 10.934,9.597 L10.934,9.598 L17.632,2.885 C20.207,0.305 24.435,0.305 27.010,2.885 C29.584,5.465 29.584,9.703 27.010,12.283 ZM5.576,20.337 C4.440,21.476 4.440,23.226 5.576,24.365 C6.713,25.504 8.459,25.504 9.595,24.365 L16.293,17.652 C17.430,16.513 17.430,14.764 16.293,13.625 C16.056,13.387 15.777,13.218 15.497,13.080 L18.260,10.310 C18.519,10.502 18.739,10.706 18.972,10.940 C21.546,13.520 21.546,17.757 18.972,20.337 L12.274,27.050 C9.700,29.630 5.471,29.630 2.897,27.050 C0.323,24.470 0.323,20.232 2.897,17.652 L7.083,13.457 C6.908,15.030 7.157,16.619 7.837,18.072 L5.576,20.337 ZM18.972,20.338 C18.972,20.338 18.972,20.338 18.972,20.337 L18.972,20.337 L18.972,20.338 Z" class="cls-1"/>
</svg>
