<svg xmlns="http://www.w3.org/2000/svg" xmlns:xlink="http://www.w3.org/1999/xlink" preserveAspectRatio="xMidYMid" width="26" height="33" viewBox="0 0 26 33">
  <defs>
    <style>
      .cls-1 {
        fill: #f2ae1c;
        fill-rule: evenodd;
      }
    </style>
  </defs>
  <path d="M25.978,26.971 C25.978,26.971 26.006,28.977 25.695,29.791 C25.695,29.791 20.946,33.000 12.991,33.000 L12.975,32.813 L12.980,33.000 C5.025,33.000 0.275,29.791 0.275,29.791 C-0.036,28.977 -0.007,26.971 -0.007,26.971 L0.004,26.973 C-0.094,25.530 0.022,22.610 2.455,21.967 C5.717,21.105 8.367,19.166 8.367,19.166 L10.823,27.240 L11.160,28.335 L12.260,25.095 C9.503,21.096 12.991,21.252 12.991,21.252 C12.991,21.252 16.478,21.097 13.721,25.095 L14.811,28.310 L15.151,27.226 L15.157,27.243 L15.547,25.963 L17.614,19.166 C17.614,19.166 20.265,21.105 23.527,21.968 C25.958,22.610 26.076,25.527 25.978,26.971 ZM18.816,13.726 C18.714,13.725 18.623,13.674 18.547,13.603 C18.332,15.005 17.767,16.713 16.366,17.925 C12.909,20.685 9.627,17.980 9.627,17.980 C8.193,16.775 7.612,15.057 7.389,13.641 C7.321,13.693 7.243,13.727 7.158,13.725 C6.851,13.719 6.441,13.253 5.998,11.485 C5.440,9.259 5.963,8.820 6.469,8.824 C6.586,8.825 6.605,8.823 6.707,8.855 L6.708,8.806 C6.708,8.806 5.209,3.605 8.815,1.318 C8.815,1.318 8.182,0.785 8.231,0.015 C8.231,0.015 9.884,0.211 11.469,0.214 C12.189,0.215 12.895,0.178 13.425,0.064 C13.637,0.018 13.851,-0.000 14.063,0.005 C15.551,0.044 16.978,1.250 17.228,2.414 C17.228,2.414 17.251,2.412 17.290,2.412 C17.761,2.411 20.716,2.646 19.298,8.827 C19.298,8.827 19.297,8.835 19.295,8.850 C19.363,8.835 19.435,8.825 19.508,8.824 C20.015,8.818 20.543,9.253 19.984,11.485 C19.537,13.268 19.123,13.727 18.816,13.726 Z" class="cls-1"/>
</svg>
