<svg xmlns="http://www.w3.org/2000/svg" xmlns:xlink="http://www.w3.org/1999/xlink" preserveAspectRatio="xMidYMid" width="27" height="29" viewBox="0 0 27 29">
  <defs>
    <style>
      .cls-1 {
        fill: #f2ae1c;
        fill-rule: evenodd;
      }
    </style>
  </defs>
  <path d="M1.774,2.034 C2.856,0.910 6.118,0.725 6.142,1.317 C6.168,1.910 9.082,8.487 9.108,9.081 C9.132,9.672 7.186,11.695 6.616,12.285 C6.052,12.872 10.425,18.005 10.506,18.101 C10.600,18.187 15.542,22.726 16.109,22.144 C16.674,21.553 18.619,19.530 19.191,19.555 C19.762,19.581 26.097,22.608 26.667,22.637 C27.238,22.661 27.057,26.047 25.978,27.170 C25.055,28.126 20.274,31.610 11.964,25.396 C11.051,24.849 9.607,23.602 7.417,21.326 L7.414,21.326 C7.412,21.326 7.412,21.322 7.410,21.317 C7.407,21.317 7.405,21.317 7.405,21.317 C7.402,21.311 7.401,21.311 7.401,21.307 C5.212,19.037 4.009,17.537 3.486,16.591 C-2.497,7.958 0.853,2.992 1.774,2.034 Z" class="cls-1"/>
</svg>
