<svg xmlns="http://www.w3.org/2000/svg" xmlns:xlink="http://www.w3.org/1999/xlink" preserveAspectRatio="xMidYMid" width="30" height="28" viewBox="0 0 30 28">
  <defs>
    <style>
      .cls-1 {
        fill: #f2ae1c;
        fill-rule: evenodd;
      }
    </style>
  </defs>
  <path d="M27.805,21.633 L25.377,21.633 L25.377,16.302 L4.595,16.302 L4.595,21.633 L2.168,21.633 C0.964,21.633 -0.011,20.720 -0.011,19.599 L-0.011,6.772 C-0.011,5.652 0.964,4.740 2.168,4.740 L5.225,4.740 L5.225,-0.014 L24.749,-0.014 L24.749,4.740 L27.805,4.740 C29.009,4.740 29.986,5.652 29.986,6.772 L29.986,19.599 C29.986,20.720 29.009,21.633 27.805,21.633 ZM2.502,7.548 L2.502,11.861 L9.591,11.861 L9.591,7.548 L2.502,7.548 ZM23.483,1.178 L6.489,1.178 L6.489,4.740 L23.483,4.740 L23.483,1.178 ZM22.865,9.108 L12.673,9.108 C12.323,9.108 12.039,9.375 12.039,9.703 C12.039,10.034 12.323,10.300 12.673,10.300 L22.865,10.300 C23.212,10.300 23.494,10.034 23.494,9.703 C23.494,9.375 23.212,9.108 22.865,9.108 ZM3.766,8.741 L8.327,8.741 L8.327,10.669 L3.766,10.669 L3.766,8.741 ZM24.117,28.002 L5.858,28.002 L5.858,17.495 L24.117,17.495 L24.117,28.002 ZM20.606,20.230 L8.957,20.230 C8.610,20.230 8.327,20.497 8.327,20.828 C8.327,21.159 8.610,21.426 8.957,21.426 L20.606,21.426 C20.957,21.426 21.238,21.159 21.238,20.828 C21.238,20.497 20.957,20.230 20.606,20.230 ZM20.606,23.691 L8.957,23.691 C8.610,23.691 8.327,23.958 8.327,24.289 C8.327,24.615 8.610,24.882 8.957,24.882 L20.606,24.882 C20.957,24.882 21.238,24.615 21.238,24.289 C21.238,23.958 20.957,23.691 20.606,23.691 Z" class="cls-1"/>
</svg>
