<?xml version="1.0" encoding="utf-8"?>
<!-- Generator: Adobe Illustrator 19.2.1, SVG Export Plug-In . SVG Version: 6.00 Build 0)  -->
<svg version="1.1" id="Слой_1" xmlns="http://www.w3.org/2000/svg" xmlns:xlink="http://www.w3.org/1999/xlink" x="0px" y="0px"
	 viewBox="0 0 16 15.7" style="enable-background:new 0 0 16 15.7;" xml:space="preserve">
<style type="text/css">
	.st0{fill:#FFFFFF;}
</style>
<g>
	<g>
		<path class="st0" d="M16,15.7H0l0-1c0-1.7,0-3.3,2.4-3.8l0.1,0c1.1-0.3,2.5-0.6,2.8-1.1c0.1-0.2,0-0.4-0.1-0.7
			c-1.6-3-1.9-5.3-0.8-7.1C5.1,0.7,6.4,0,8,0c1.6,0,2.9,0.7,3.6,1.9C12.7,3.7,12.4,6,10.8,9c-0.2,0.3-0.2,0.6-0.1,0.7
			c0.2,0.5,1.6,0.8,2.8,1.1l0.1,0c2.4,0.6,2.4,2.1,2.4,3.8L16,15.7z M1.2,14.5h13.6c0-1.6,0-2.1-1.5-2.5l-0.1,0
			c-1.6-0.4-3.1-0.7-3.6-1.8C9.4,9.7,9.4,9.1,9.8,8.5c1.4-2.6,1.7-4.5,0.9-5.9C10.1,1.7,9.2,1.2,8,1.2c-1.2,0-2.1,0.5-2.6,1.4
			C4.5,4,4.8,5.9,6.2,8.4c0.4,0.7,0.4,1.3,0.2,1.8c-0.5,1.1-2,1.4-3.6,1.8l-0.1,0C1.2,12.4,1.2,12.9,1.2,14.5z"/>
	</g>
</g>
</svg>
