<?xml version="1.0" encoding="utf-8"?>
<!-- Generator: Adobe Illustrator 19.2.1, SVG Export Plug-In . SVG Version: 6.00 Build 0)  -->
<svg version="1.1" id="Layer_1" xmlns="http://www.w3.org/2000/svg" xmlns:xlink="http://www.w3.org/1999/xlink" x="0px" y="0px"
	 viewBox="0 0 254 92.4" style="enable-background:new 0 0 254 92.4;" xml:space="preserve">
<style type="text/css">
	.st0{fill:#E94B4C;}
	.st1{fill:#444444;}
</style>
<polygon class="st0" points="12.1,41.6 11.8,42 11.3,42.6 10.7,43.4 9.9,44.3 9,45.4 8.1,46.6 7.1,48 6.1,49.7 5.1,51.4 4.1,53.3 
	3.1,55.3 2.2,57.6 1.5,60 0.9,62.5 0.4,65.3 0,68.2 11,71.5 47.7,33.2 46.9,34.4 46.1,35.7 45.3,37 44.5,38.4 43.7,39.8 42.9,41.2 
	42.1,42.8 41.3,44.4 40.6,46.1 40,47.9 39.3,49.9 38.7,52 38.2,54.3 37.7,56.7 37.3,59.2 36.9,62 53,68.4 74.9,35.7 74,37.5 
	73.2,39.3 72.4,41.2 71.6,43 70.9,45 70.2,46.9 69.4,48.8 68.7,50.7 68,52.6 67.3,54.6 66.7,56.5 66,58.5 65.4,60.5 64.8,62.6 
	64.3,64.6 63.8,66.7 74.5,70.3 75.9,66.6 77.3,62.8 78.7,59.1 80.2,55.5 81.7,51.8 83.2,48.2 84.8,44.5 86.5,41 88.2,37.4 
	89.9,33.9 91.6,30.5 93.3,27.1 95,23.8 96.8,20.5 98.6,17.3 100.5,14.2 91,5.7 89.3,7.3 87.6,8.9 85.9,10.5 84.1,12 82.4,13.7 
	80.7,15.3 79,17 77.4,18.6 75.7,20.3 74,22.1 72.3,23.8 70.6,25.6 69,27.5 67.3,29.4 65.6,31.3 63.9,33.3 76.7,8.8 65.1,0.5 
	20.4,44.3 12.1,41.6 "/>
<path class="st0" d="M244.3,12.5l-2.2,0.7l-2.2,0.9l-2.3,0.9l-2.3,1l-2.3,1.1l-2.4,1.1l-2.4,1.2l-2.4,1.2l-2.4,1.4l-2.5,1.4
	l-2.4,1.4l-2.5,1.6l-2.5,1.5l-2.5,1.7l-2.5,1.7L206,33l0.7-1.1l0.7-1l0.8-1.1l0.7-1l0.7-1l0.8-1l0.8-1l0.7-1l0.8-0.9l0.8-0.9
	l0.9-0.9l0.8-0.9l0.8-1l0.9-0.9l0.9-0.9l0.9-0.9l-9.6-9.8l-1.8,2l-1.9,2.2l-2.1,2.3l-2.1,2.5l-2.3,2.8l-2.3,2.9l-2.4,3.2l-2.3,3.2
	l-2.4,3.4l-2.3,3.6l-2.4,3.7l-2.3,3.9l-2.3,3.9l-2.1,4.1l-2.1,4.2l-1.9,4.4l12.1,5.9l6.8-11.2l2.4,1.5l2.5,1.3l2.5,1.4l2.5,1.2
	l2.5,1.2l2.6,1.1l2.5,1.1l2.6,1l2.5,1.1l2.6,1l2.5,1l2.6,0.9l2.5,0.9l2.6,1l2.5,0.9l2.5,0.9l3.7-12.1l-1.4-0.5l-1.3-0.5l-1.4-0.5
	l-1.4-0.5l-1.3-0.5l-1.4-0.6l-1.4-0.5l-1.3-0.5l-1.4-0.6l-1.4-0.5l-1.3-0.6l-1.4-0.6l-1.3-0.6l-1.4-0.6l-1.3-0.6l-1.4-0.6l2.6-1.6
	l2.8-1.6l2.9-1.7l3-1.7l2.9-1.8l3-1.7l2.9-1.8l2.8-1.9l2.7-1.8l2.5-1.9l2.4-1.9l2.1-1.9l1.9-1.9l1.6-1.9l1.2-1.9l1-1.9L244.3,12.5z
	 M221.1,35.9l-1.5,1.3l-1.6,1.1l-1.6,1.1l-1.7,1l-1.7,0.9l-1.7,1.1l-1.8,1l-2.5-1.1l0.7-0.8l0.9-0.7l1-0.7l1-0.7l0.9-0.6l0.9-0.5
	l1.1-0.5l1-0.5l1-0.4l1-0.4l1-0.4l1-0.4l1-0.3l1-0.3l1-0.3l1-0.3L221.1,35.9z"/>
<path class="st0" d="M177.9,25.6l0.9-1.2l0.9-1.2l0.8-1.2l0.8-1.3l0.8-1.3l0.8-1.3l0.6-1.5l0.6-1.5l-7.3-8.8l-2.9,1.2L171,9l-3,1.3
	l-2.9,1.5l-2.9,1.6l-3,1.7l-2.8,1.7l-2.9,1.8l-2.8,1.9l-2.8,2.1l-2.7,2.1l-2.6,2.3l-2.6,2.4l-2.4,2.5l-2.4,2.6l-2.4,2.7l6.5,10.5
	l-1,0.6l-1,0.6l-1.1,0.5l-1,0.6l-1.1,0.6l-1,0.6l-1,0.6l-1,0.6l-1,0.6l-1,0.6l-0.9,0.7l-1,0.7l-1,0.8l-0.9,0.8l-1,0.8l-0.4,0.7
	l9.6,7.7l1.6-1.2l1.7-1.1l1.6-1.1l1.7-1.1l1.7-1l1.6-1.1l1.7-1.1l1.7-1l1.7-1l1.6-1l1.7-0.9l1.7-1l1.7-1l1.7-1l1.8-0.9l1.7-1
	l-7,15.6l12.4,2.8l1.1-2.3l1.2-2.4l1.2-2.3l1.2-2.3l1.3-2.3L173,54l1.2-2.3l1.4-2.3l1.3-2.3l1.3-2.2l1.4-2.2l1.4-2.1l1.4-2.1
	l1.4-2.1l1.4-2l1.4-1.9L177.9,25.6z M171.2,30.3l-1.4,0.4l-1.4,0.4l-1.5,0.5l-1.4,0.5l-1.4,0.6l-1.5,0.5l-1.4,0.6l-1.5,0.6l-1.4,0.7
	l-1.5,0.6l-1.4,0.7l-1.5,0.7l-1.4,0.7l-1.5,0.7l-1.4,0.8l0.9-1l0.9-1.1l1-1.1l1.1-1.1l1.1-1.1l1.1-1.1l1.1-1l1.1-1.1l1.2-1l1.2-1.1
	l1.1-1l1.2-1l1.2-0.9l1.2-0.8l1.1-0.8l1.1-0.6l5.4,6.3L171.2,30.3z"/>
<path class="st0" d="M135.6,21.8l-8.2-10l-3.7,2.1l-3.6,2.3l-3.7,2.4l-3.5,2.6l-3.5,2.8l-3.4,2.9l-3.3,3L99.6,33l-3.1,3.2l-2.9,3.2
	l-2.7,3.3L88.3,46l-2.4,3.3L84,52.6L82.1,56l-1.7,3.2l6,6.9l24.1-11l-2.8,5.7l12,4.5l4.8-14.6l9.2-3.8l-4.4-8.2L135.6,21.8z
	 M114.9,40.6l-7.8,2.7l1.1-1.4l1-1.5l1.1-1.4l1.3-1.4l1.3-1.2l1.4-1.1l1.5-1l1.5-0.8L114.9,40.6z"/>
<g>
	<path class="st1" d="M8.9,80.3H3.7v9.6H2.3V79.1h6.6V80.3z"/>
	<path class="st1" d="M15.6,87h-4.5l-1,2.8H8.7l4.1-10.7H14l4.1,10.7h-1.4L15.6,87z M11.6,85.8h3.6l-1.8-5L11.6,85.8z"/>
	<path class="st1" d="M25.6,82c0-0.6-0.2-1-0.6-1.4c-0.4-0.3-1-0.5-1.7-0.5c-0.6,0-1.2,0.2-1.6,0.5C21.2,81,21,81.4,21,81.9h-1.4
		c0-0.6,0.2-1.1,0.5-1.5c0.3-0.5,0.7-0.8,1.3-1.1c0.6-0.3,1.2-0.4,1.9-0.4c1.2,0,2.1,0.3,2.8,0.8c0.7,0.5,1,1.3,1,2.2
		c0,0.5-0.2,0.9-0.5,1.4s-0.7,0.7-1.3,1c1.3,0.4,1.9,1.3,1.9,2.5c0,1-0.4,1.7-1.1,2.3S24.4,90,23.2,90c-0.7,0-1.4-0.1-1.9-0.4
		c-0.6-0.3-1-0.6-1.4-1.1c-0.3-0.5-0.5-1-0.5-1.7h1.4c0,0.6,0.2,1,0.7,1.4c0.4,0.4,1,0.6,1.7,0.6c0.8,0,1.4-0.2,1.8-0.5
		c0.5-0.4,0.7-0.8,0.7-1.4c0-1.3-0.8-1.9-2.3-1.9h-1.3v-1.2h1.3c0.7,0,1.3-0.2,1.6-0.5C25.4,83,25.6,82.5,25.6,82z"/>
	<path class="st1" d="M35.6,84.9h-4.6v3.8h5.4v1.2h-6.8V79.1h6.7v1.2h-5.3v3.4h4.6V84.9z"/>
	<path class="st1" d="M46.2,80.3h-3.4v9.6h-1.4v-9.6h-3.4v-1.2h8.3V80.3z"/>
	<path class="st1" d="M53.6,87h-4.5l-1,2.8h-1.5l4.1-10.7H52l4.1,10.7h-1.4L53.6,87z M49.6,85.8h3.6l-1.8-5L49.6,85.8z"/>
	<path class="st1" d="M68.4,80.3h-5.2v9.6h-1.4V79.1h6.6V80.3z"/>
	<path class="st1" d="M78.4,84.8c0,1.1-0.2,2-0.5,2.7c-0.4,0.8-0.9,1.4-1.5,1.8S75,90,74.1,90c-0.8,0-1.6-0.2-2.2-0.6
		c-0.7-0.4-1.2-1-1.5-1.8c-0.4-0.8-0.5-1.7-0.6-2.7v-0.8c0-1,0.2-1.9,0.5-2.7s0.9-1.4,1.5-1.8c0.7-0.4,1.4-0.6,2.2-0.6
		c0.9,0,1.6,0.2,2.3,0.6c0.7,0.4,1.2,1,1.5,1.8c0.4,0.8,0.5,1.7,0.5,2.7V84.8z M77,84.1c0-1.3-0.3-2.2-0.8-2.9c-0.5-0.7-1.2-1-2.1-1
		c-0.9,0-1.6,0.3-2.1,1c-0.5,0.7-0.8,1.6-0.8,2.8v0.8c0,1.2,0.3,2.2,0.8,2.9c0.5,0.7,1.2,1.1,2.1,1.1c0.9,0,1.6-0.3,2.1-1
		c0.5-0.7,0.8-1.6,0.8-2.9V84.1z"/>
	<path class="st1" d="M82.5,85.6v4.2h-1.4V79.1H85c1.2,0,2.1,0.3,2.8,0.9c0.7,0.6,1,1.4,1,2.4c0,1-0.3,1.8-1,2.4
		c-0.6,0.6-1.6,0.8-2.8,0.8H82.5z M82.5,84.5H85c0.8,0,1.3-0.2,1.7-0.5c0.4-0.4,0.6-0.9,0.6-1.5c0-0.6-0.2-1.1-0.6-1.5
		c-0.4-0.4-1-0.6-1.7-0.6h-2.6V84.5z"/>
	<path class="st1" d="M99.4,84.8c0,1.1-0.2,2-0.5,2.7c-0.4,0.8-0.9,1.4-1.5,1.8c-0.6,0.4-1.4,0.6-2.3,0.6c-0.8,0-1.6-0.2-2.2-0.6
		c-0.7-0.4-1.2-1-1.5-1.8c-0.4-0.8-0.5-1.7-0.6-2.7v-0.8c0-1,0.2-1.9,0.5-2.7s0.9-1.4,1.5-1.8c0.7-0.4,1.4-0.6,2.2-0.6
		c0.9,0,1.6,0.2,2.3,0.6c0.7,0.4,1.2,1,1.5,1.8c0.4,0.8,0.5,1.7,0.5,2.7V84.8z M98,84.1c0-1.3-0.3-2.2-0.8-2.9c-0.5-0.7-1.2-1-2.1-1
		c-0.9,0-1.6,0.3-2.1,1c-0.5,0.7-0.8,1.6-0.8,2.8v0.8c0,1.2,0.3,2.2,0.8,2.9c0.5,0.7,1.2,1.1,2.1,1.1c0.9,0,1.6-0.3,2.1-1
		c0.5-0.7,0.8-1.6,0.8-2.9V84.1z"/>
	<path class="st1" d="M111.4,92.4H110v-2.6h-7.7v2.6h-1.4l0-3.8h0.9c0.5-0.5,0.8-1.2,1.1-2.1c0.3-0.9,0.4-1.8,0.5-2.9l0.2-4.6h6.4
		v9.6h1.4L111.4,92.4z M103.4,88.6h5.2v-8.4H105l-0.2,3.1c-0.1,1.2-0.2,2.3-0.5,3.2C104.1,87.4,103.7,88.1,103.4,88.6z"/>
	<path class="st1" d="M119.6,87h-4.5l-1,2.8h-1.5l4.1-10.7h1.2l4.1,10.7h-1.4L119.6,87z M115.6,85.8h3.6l-1.8-5L115.6,85.8z"/>
	<path class="st1" d="M135.7,86.4c-0.1,1.1-0.6,2-1.3,2.6c-0.7,0.6-1.6,0.9-2.8,0.9c-1.3,0-2.3-0.5-3-1.4c-0.8-0.9-1.1-2.1-1.1-3.6
		v-1c0-1,0.2-1.9,0.5-2.6c0.4-0.8,0.9-1.3,1.5-1.7c0.7-0.4,1.4-0.6,2.3-0.6c1.1,0,2,0.3,2.7,1c0.7,0.6,1.1,1.5,1.2,2.6h-1.4
		c-0.1-0.9-0.4-1.5-0.8-1.9c-0.4-0.4-1-0.6-1.7-0.6c-0.9,0-1.6,0.3-2.1,1c-0.5,0.7-0.8,1.6-0.8,2.8v1c0,1.2,0.2,2.1,0.7,2.8
		c0.5,0.7,1.2,1,2,1c0.8,0,1.4-0.2,1.8-0.5c0.4-0.4,0.7-1,0.8-1.9H135.7z"/>
	<path class="st1" d="M146.4,84.8c0,1.1-0.2,2-0.5,2.7c-0.4,0.8-0.9,1.4-1.5,1.8S143,90,142.1,90c-0.8,0-1.6-0.2-2.2-0.6
		c-0.7-0.4-1.2-1-1.5-1.8c-0.4-0.8-0.5-1.7-0.6-2.7v-0.8c0-1,0.2-1.9,0.5-2.7c0.4-0.8,0.9-1.4,1.5-1.8c0.7-0.4,1.4-0.6,2.2-0.6
		c0.9,0,1.6,0.2,2.3,0.6c0.7,0.4,1.2,1,1.5,1.8c0.4,0.8,0.5,1.7,0.5,2.7V84.8z M145,84.1c0-1.3-0.3-2.2-0.8-2.9
		c-0.5-0.7-1.2-1-2.1-1c-0.9,0-1.6,0.3-2.1,1c-0.5,0.7-0.8,1.6-0.8,2.8v0.8c0,1.2,0.3,2.2,0.8,2.9c0.5,0.7,1.2,1.1,2.1,1.1
		c0.9,0,1.6-0.3,2.1-1c0.5-0.7,0.8-1.6,0.8-2.9V84.1z"/>
	<path class="st1" d="M156.9,86.4c-0.1,1.1-0.6,2-1.3,2.6c-0.7,0.6-1.6,0.9-2.8,0.9c-1.3,0-2.3-0.5-3-1.4c-0.8-0.9-1.1-2.1-1.1-3.6
		v-1c0-1,0.2-1.9,0.5-2.6c0.4-0.8,0.9-1.3,1.5-1.7c0.7-0.4,1.4-0.6,2.3-0.6c1.1,0,2,0.3,2.7,1c0.7,0.6,1.1,1.5,1.2,2.6h-1.4
		c-0.1-0.9-0.4-1.5-0.8-1.9c-0.4-0.4-1-0.6-1.7-0.6c-0.9,0-1.6,0.3-2.1,1c-0.5,0.7-0.8,1.6-0.8,2.8v1c0,1.2,0.2,2.1,0.7,2.8
		c0.5,0.7,1.2,1,2,1c0.8,0,1.4-0.2,1.8-0.5c0.4-0.4,0.7-1,0.8-1.9H156.9z"/>
	<path class="st1" d="M167.6,89.8h-1.4v-4.9h-5.4v4.9h-1.4V79.1h1.4v4.6h5.4v-4.6h1.4V89.8z"/>
	<path class="st1" d="M178.9,84.8c0,1.1-0.2,2-0.5,2.7c-0.4,0.8-0.9,1.4-1.5,1.8s-1.4,0.6-2.3,0.6c-0.8,0-1.6-0.2-2.2-0.6
		c-0.7-0.4-1.2-1-1.5-1.8c-0.4-0.8-0.5-1.7-0.6-2.7v-0.8c0-1,0.2-1.9,0.5-2.7c0.4-0.8,0.9-1.4,1.5-1.8c0.7-0.4,1.4-0.6,2.2-0.6
		c0.9,0,1.6,0.2,2.3,0.6c0.7,0.4,1.2,1,1.5,1.8c0.4,0.8,0.5,1.7,0.5,2.7V84.8z M177.5,84.1c0-1.3-0.3-2.2-0.8-2.9
		c-0.5-0.7-1.2-1-2.1-1c-0.9,0-1.6,0.3-2.1,1c-0.5,0.7-0.8,1.6-0.8,2.8v0.8c0,1.2,0.3,2.2,0.8,2.9c0.5,0.7,1.2,1.1,2.1,1.1
		c0.9,0,1.6-0.3,2.1-1c0.5-0.7,0.8-1.6,0.8-2.9V84.1z"/>
	<path class="st1" d="M181.5,89.8V79.1h3.5c1.2,0,2,0.2,2.6,0.7c0.6,0.5,0.9,1.2,0.9,2.1c0,0.5-0.1,0.9-0.4,1.3
		c-0.3,0.4-0.7,0.7-1.2,0.9c0.6,0.2,1,0.5,1.4,0.9c0.3,0.5,0.5,1,0.5,1.6c0,1-0.3,1.7-0.9,2.3c-0.6,0.5-1.5,0.8-2.6,0.8H181.5z
		 M182.9,83.7h2.1c0.6,0,1.1-0.2,1.5-0.5c0.4-0.3,0.6-0.7,0.6-1.3c0-0.6-0.2-1-0.5-1.3c-0.3-0.3-0.9-0.4-1.6-0.4h-2.1V83.7z
		 M182.9,84.8v3.9h2.3c0.7,0,1.2-0.2,1.6-0.5c0.4-0.3,0.6-0.8,0.6-1.4c0-1.3-0.7-1.9-2.1-1.9H182.9z"/>
	<path class="st1" d="M192.9,83.5h2.7c1.1,0,2,0.3,2.6,0.9c0.6,0.6,0.9,1.3,0.9,2.3c0,1-0.3,1.7-0.9,2.3c-0.6,0.6-1.5,0.9-2.6,0.9
		h-4.1V79.1h1.4V83.5z M192.9,84.6v4h2.6c0.7,0,1.2-0.2,1.6-0.6c0.4-0.4,0.6-0.9,0.6-1.5c0-0.6-0.2-1.1-0.6-1.4
		c-0.4-0.3-0.9-0.5-1.6-0.5H192.9z M201.8,89.8h-1.4V79.1h1.4V89.8z"/>
	<path class="st1" d="M211.7,79.1h1.4v10.7h-1.4v-8.3l-5.3,8.3H205V79.1h1.4v8.3L211.7,79.1z M211.3,76.4c0,0.6-0.2,1.1-0.6,1.4
		c-0.4,0.4-0.9,0.5-1.6,0.5s-1.2-0.2-1.6-0.5c-0.4-0.4-0.6-0.8-0.6-1.4h1.1c0,0.3,0.1,0.6,0.3,0.8c0.2,0.2,0.5,0.3,0.8,0.3
		c0.3,0,0.6-0.1,0.8-0.3c0.2-0.2,0.3-0.5,0.3-0.8H211.3z"/>
	<path class="st1" d="M226.5,80.3h-5.2v3.2h2.7c1.1,0,2,0.3,2.6,0.9c0.6,0.6,0.9,1.3,0.9,2.3c0,1-0.3,1.7-0.9,2.3
		c-0.6,0.6-1.5,0.9-2.6,0.9h-4.1V79.1h6.6V80.3z M221.3,84.6v4h2.6c0.7,0,1.2-0.2,1.6-0.6c0.4-0.4,0.6-0.9,0.6-1.5
		c0-0.6-0.2-1.1-0.6-1.4c-0.4-0.3-0.9-0.5-1.6-0.5H221.3z"/>
	<path class="st1" d="M238.2,84.8c0,1.1-0.2,2-0.5,2.7c-0.4,0.8-0.9,1.4-1.5,1.8c-0.6,0.4-1.4,0.6-2.3,0.6c-0.8,0-1.6-0.2-2.2-0.6
		c-0.7-0.4-1.2-1-1.5-1.8c-0.4-0.8-0.5-1.7-0.6-2.7v-0.8c0-1,0.2-1.9,0.5-2.7c0.4-0.8,0.9-1.4,1.5-1.8c0.7-0.4,1.4-0.6,2.2-0.6
		c0.9,0,1.6,0.2,2.3,0.6c0.7,0.4,1.2,1,1.5,1.8c0.4,0.8,0.5,1.7,0.5,2.7V84.8z M236.8,84.1c0-1.3-0.3-2.2-0.8-2.9
		c-0.5-0.7-1.2-1-2.1-1c-0.9,0-1.6,0.3-2.1,1c-0.5,0.7-0.8,1.6-0.8,2.8v0.8c0,1.2,0.3,2.2,0.8,2.9c0.5,0.7,1.2,1.1,2.1,1.1
		c0.9,0,1.6-0.3,2.1-1c0.5-0.7,0.8-1.6,0.8-2.9V84.1z"/>
	<path class="st1" d="M242.3,85.6v4.2h-1.4V79.1h3.9c1.2,0,2.1,0.3,2.8,0.9c0.7,0.6,1,1.4,1,2.4c0,1-0.3,1.8-1,2.4
		c-0.6,0.6-1.6,0.8-2.8,0.8H242.3z M242.3,84.5h2.5c0.8,0,1.3-0.2,1.7-0.5s0.6-0.9,0.6-1.5c0-0.6-0.2-1.1-0.6-1.5
		c-0.4-0.4-1-0.6-1.7-0.6h-2.6V84.5z"/>
</g>
</svg>
