<svg xmlns="http://www.w3.org/2000/svg" xmlns:xlink="http://www.w3.org/1999/xlink" preserveAspectRatio="xMidYMid" width="30" height="30" viewBox="0 0 30 30">
  <defs>
    <style>
      .cls-1 {
        fill: #7e7e7e;
        fill-rule: evenodd;
      }
    </style>
  </defs>
  <path d="M-0.000,30.000 L-0.000,-0.000 L30.000,-0.000 L30.000,30.000 L-0.000,30.000 ZM21.356,15.491 C20.678,14.758 19.773,14.276 18.645,14.037 L18.645,13.940 C19.429,13.610 20.045,13.099 20.489,12.403 C20.937,11.707 21.159,10.915 21.159,10.023 C21.159,9.251 20.996,8.572 20.673,7.982 C20.350,7.395 19.860,6.921 19.207,6.570 C18.603,6.242 17.954,6.029 17.262,5.928 C16.571,5.823 15.553,5.773 14.211,5.773 L7.754,5.773 L7.754,24.053 L15.071,24.053 C16.340,24.053 17.384,23.939 18.205,23.709 C19.031,23.478 19.785,23.097 20.472,22.557 C21.055,22.104 21.516,21.538 21.859,20.851 C22.203,20.163 22.375,19.363 22.375,18.454 C22.375,17.214 22.035,16.225 21.356,15.491 ZM16.445,20.344 C15.972,20.549 15.502,20.658 15.046,20.675 C14.589,20.692 13.763,20.700 12.569,20.700 L12.321,20.700 L12.321,16.124 L13.168,16.124 C13.985,16.124 14.639,16.128 15.125,16.140 C15.611,16.153 15.996,16.212 16.273,16.321 C16.730,16.484 17.074,16.723 17.304,17.046 C17.535,17.364 17.647,17.804 17.647,18.370 C17.647,18.810 17.551,19.204 17.358,19.551 C17.166,19.900 16.864,20.163 16.445,20.344 ZM15.527,12.713 C15.192,12.867 14.865,12.952 14.551,12.968 C14.236,12.985 13.683,12.993 12.900,12.993 L12.321,12.993 L12.321,9.126 L12.640,9.126 C13.457,9.126 14.073,9.130 14.488,9.142 C14.903,9.155 15.259,9.226 15.561,9.360 C15.884,9.499 16.118,9.725 16.269,10.035 C16.420,10.345 16.495,10.647 16.495,10.944 C16.495,11.342 16.424,11.694 16.286,12.000 C16.147,12.302 15.892,12.541 15.527,12.713 Z" class="cls-1"/>
</svg>
