<?xml version="1.0" encoding="UTF-8" standalone="no"?>
<!-- Created with Inkscape (http://www.inkscape.org/) -->

<svg
   xmlns:dc="http://purl.org/dc/elements/1.1/"
   xmlns:cc="http://creativecommons.org/ns#"
   xmlns:rdf="http://www.w3.org/1999/02/22-rdf-syntax-ns#"
   xmlns:svg="http://www.w3.org/2000/svg"
   xmlns="http://www.w3.org/2000/svg"
   xmlns:sodipodi="http://sodipodi.sourceforge.net/DTD/sodipodi-0.dtd"
   xmlns:inkscape="http://www.inkscape.org/namespaces/inkscape"
   width="30"
   height="30"
   viewBox="0 0 30 30"
   id="svg5069"
   version="1.1"
   inkscape:version="0.91 r13725"
   sodipodi:docname="mayak_tw_hover.svg">
  <defs
     id="defs5071" />
  <sodipodi:namedview
     id="base"
     pagecolor="#ffffff"
     bordercolor="#666666"
     borderopacity="1.0"
     inkscape:pageopacity="0.0"
     inkscape:pageshadow="2"
     inkscape:zoom="3.959798"
     inkscape:cx="27.48475"
     inkscape:cy="6.3332045"
     inkscape:document-units="px"
     inkscape:current-layer="layer1"
     showgrid="false"
     inkscape:window-width="1920"
     inkscape:window-height="1138"
     inkscape:window-x="-8"
     inkscape:window-y="-8"
     inkscape:window-maximized="1"
     units="px" />
  <metadata
     id="metadata5074">
    <rdf:RDF>
      <cc:Work
         rdf:about="">
        <dc:format>image/svg+xml</dc:format>
        <dc:type
           rdf:resource="http://purl.org/dc/dcmitype/StillImage" />
        <dc:title></dc:title>
      </cc:Work>
    </rdf:RDF>
  </metadata>
  <g
     inkscape:label="Layer 1"
     inkscape:groupmode="layer"
     id="layer1"
     transform="translate(0,-1022.3622)">
    <path
       inkscape:connector-curvature="0"
       style="fill:#39b9dc;fill-opacity:1"
       d="m 0,1022.3622 0,30 30,0 0,-30 -30,0 z m 11.59375,3.707 4.84571,0 0,8.4492 4.91015,0 0,3.6954 -4.91015,0 0,4.8671 c 0,0.6367 0.11045,1.0499 0.33398,1.2403 0.20677,0.2201 0.76907,0.3301 1.68555,0.3301 l 2.89062,-0.07 0,3.873 -4.15625,0.1153 c -2.24648,0 -3.78009,-0.3772 -4.60156,-1.1329 -0.66501,-0.6129 -0.99805,-1.6514 -0.99805,-3.1152 l 0,-6.1074 -2.47265,0 0,-3.6953 2.47265,0 0,-8.4492 z"
       id="path5050" />
  </g>
</svg>
