<?xml version="1.0" encoding="UTF-8" standalone="no"?>
<!-- Created with Inkscape (http://www.inkscape.org/) -->

<svg
   xmlns:dc="http://purl.org/dc/elements/1.1/"
   xmlns:cc="http://creativecommons.org/ns#"
   xmlns:rdf="http://www.w3.org/1999/02/22-rdf-syntax-ns#"
   xmlns:svg="http://www.w3.org/2000/svg"
   xmlns="http://www.w3.org/2000/svg"
   xmlns:sodipodi="http://sodipodi.sourceforge.net/DTD/sodipodi-0.dtd"
   xmlns:inkscape="http://www.inkscape.org/namespaces/inkscape"
   width="30"
   height="30"
   viewBox="0 0 30 30"
   id="svg5069"
   version="1.1"
   inkscape:version="0.91 r13725"
   sodipodi:docname="mayak_ins_hover.svg">
  <defs
     id="defs5071" />
  <sodipodi:namedview
     id="base"
     pagecolor="#ffffff"
     bordercolor="#666666"
     borderopacity="1.0"
     inkscape:pageopacity="0.0"
     inkscape:pageshadow="2"
     inkscape:zoom="3.959798"
     inkscape:cx="27.48475"
     inkscape:cy="6.3332045"
     inkscape:document-units="px"
     inkscape:current-layer="layer1"
     showgrid="false"
     inkscape:window-width="1920"
     inkscape:window-height="1138"
     inkscape:window-x="-8"
     inkscape:window-y="-8"
     inkscape:window-maximized="1"
     units="px" />
  <metadata
     id="metadata5074">
    <rdf:RDF>
      <cc:Work
         rdf:about="">
        <dc:format>image/svg+xml</dc:format>
        <dc:type
           rdf:resource="http://purl.org/dc/dcmitype/StillImage" />
        <dc:title></dc:title>
      </cc:Work>
    </rdf:RDF>
  </metadata>
  <g
     inkscape:label="Layer 1"
     inkscape:groupmode="layer"
     id="layer1"
     transform="translate(0,-1022.3622)">
    <path
       id="path5052"
       d="m 0,1022.3622 0,30 30,0 0,-30 -30,0 z m 5.81836,5.541 19.16797,0 0,18.4531 -19.16797,0 0,-18.4531 z m 13.92188,1.8145 0,2.8242 3.35351,0 0,-2.8242 -3.35351,0 z m -4.41211,4.2343 a 3.2212193,3.2212193 0 0 0 -3.22266,3.2227 3.2212193,3.2212193 0 0 0 3.22266,3.2207 3.2212193,3.2212193 0 0 0 3.2207,-3.2207 3.2212193,3.2212193 0 0 0 -3.2207,-3.2227 z m -7.61524,0.9375 0,9.6446 15.38086,0 0,-9.6446 -3.76953,0 a 4.6088214,4.6088214 0 0 1 0.61133,2.2852 4.6088214,4.6088214 0 0 1 -4.60742,4.6074 4.6088214,4.6088214 0 0 1 -4.60938,-4.6074 4.6088214,4.6088214 0 0 1 0.61329,-2.2852 l -3.61915,0 z"
       style="fill:#ad6320;fill-opacity:1"
       inkscape:connector-curvature="0" />
  </g>
</svg>
