<?xml version="1.0" encoding="UTF-8" standalone="no"?>
<!-- Created with Inkscape (http://www.inkscape.org/) -->

<svg
   xmlns:dc="http://purl.org/dc/elements/1.1/"
   xmlns:cc="http://creativecommons.org/ns#"
   xmlns:rdf="http://www.w3.org/1999/02/22-rdf-syntax-ns#"
   xmlns:svg="http://www.w3.org/2000/svg"
   xmlns="http://www.w3.org/2000/svg"
   xmlns:sodipodi="http://sodipodi.sourceforge.net/DTD/sodipodi-0.dtd"
   xmlns:inkscape="http://www.inkscape.org/namespaces/inkscape"
   width="30"
   height="30"
   viewBox="0 0 30 30"
   id="svg5069"
   version="1.1"
   inkscape:version="0.91 r13725"
   sodipodi:docname="mayak_fb.svg">
  <defs
     id="defs5071" />
  <sodipodi:namedview
     id="base"
     pagecolor="#ffffff"
     bordercolor="#666666"
     borderopacity="1.0"
     inkscape:pageopacity="0.0"
     inkscape:pageshadow="2"
     inkscape:zoom="11.2"
     inkscape:cx="15.26483"
     inkscape:cy="6.9729952"
     inkscape:document-units="px"
     inkscape:current-layer="layer1"
     showgrid="false"
     inkscape:window-width="1920"
     inkscape:window-height="1138"
     inkscape:window-x="-8"
     inkscape:window-y="-8"
     inkscape:window-maximized="1"
     units="px" />
  <metadata
     id="metadata5074">
    <rdf:RDF>
      <cc:Work
         rdf:about="">
        <dc:format>image/svg+xml</dc:format>
        <dc:type
           rdf:resource="http://purl.org/dc/dcmitype/StillImage" />
        <dc:title></dc:title>
      </cc:Work>
    </rdf:RDF>
  </metadata>
  <g
     inkscape:label="Layer 1"
     inkscape:groupmode="layer"
     id="layer1"
     transform="translate(0,-1022.3622)">
    <path
       inkscape:connector-curvature="0"
       style="fill:#7e7e7e;fill-opacity:1"
       d="m 0,1022.3622 0,30 30,0 0,-30 -30,0 z m 17.19336,4.0781 4.40039,0 0,4.2403 -3.26953,0 c -0.77677,0 -1.257,0.1345 -1.4414,0.4023 -0.18441,0.2916 -0.27735,2.5159 -0.27735,3.3906 l 0,0.7676 5.08789,0 0,3.6953 -5.08789,0 0,10.041 -4.8457,0 0,-10.041 -2.67383,0 0,-3.6953 2.67383,0 0,-3.2129 c 0,-1.9755 0.47132,-3.4007 1.41016,-4.2754 0.91647,-0.8747 2.25754,-1.3125 4.02343,-1.3125 z"
       id="path4899" />
  </g>
</svg>
