<?xml version="1.0" encoding="utf-8"?>
<!-- Generator: Adobe Illustrator 13.0.1, SVG Export Plug-In . SVG Version: 6.00 Build 14948)  -->
<!DOCTYPE svg PUBLIC "-//W3C//DTD SVG 1.1//EN" "http://www.w3.org/Graphics/SVG/1.1/DTD/svg11.dtd">
<svg version="1.1" id="Слой_3" xmlns="http://www.w3.org/2000/svg" xmlns:xlink="http://www.w3.org/1999/xlink" x="0px" y="0px"
	 width="46px" height="52px" viewBox="-399 270.493 46 52" enable-background="new -399 270.493 46 52" xml:space="preserve">
<g>
	<g>
		<path fill="#ED1C24" d="M-358,270.493h-36c-2.75,0-5,2.25-5,5v42c0,2.75,2.25,5,5,5h36c2.75,0,5-2.25,5-5v-42
			C-353,272.743-355.25,270.493-358,270.493z M-390.774,302.587c-0.293,0.076-0.609,0.123-0.942,0.123h-0.322
			c-1.458,0-2.649-0.807-2.649-1.795v-8.283c0-0.986,1.192-1.795,2.649-1.795h0.322c0.333,0,0.649,0.047,0.942,0.125V302.587z
			 M-379.924,311.895l-8.821-9.241v-11.762l8.821-9.24V311.895z M-376.599,304.091c-1.005-1.033-0.51-1.853-0.244-2.184
			c1.212-1.509,1.811-3.352,1.796-5.189c-0.015-1.851-0.65-3.697-1.907-5.196c-0.236-0.281-0.678-0.91,0.42-2.181
			c0.971-1.123,1.597-0.646,1.854-0.361c1.981,2.19,3.027,4.977,3.043,7.738c0.016,2.734-0.927,5.473-2.827,7.662
			C-374.763,304.725-375.594,305.124-376.599,304.091z M-371.88,309.719c-1.224-1.437-0.893-2.607-0.576-3.027
			c2.215-2.942,3.316-6.46,3.303-9.974c-0.013-3.396-1.065-6.788-3.159-9.654c-0.343-0.469-0.906-1.627,0.549-3.24
			s2.557-0.929,2.958-0.425c3.099,3.888,4.654,8.602,4.668,13.319c0.014,4.845-1.598,9.694-4.836,13.656
			C-369.342,310.824-370.656,311.155-371.88,309.719z M-362.806,316.724c-0.451,0.567-1.913,1.024-3.269-0.431
			s-1.064-3.132-0.682-3.643c3.525-4.704,5.28-10.321,5.267-15.934c-0.014-5.46-1.702-10.918-5.064-15.528
			c-0.428-0.586-1.134-1.909,0.491-3.753s2.9-1.053,3.367-0.458c4.538,5.778,6.813,12.765,6.823,19.755
			C-355.861,303.811-358.173,310.893-362.806,316.724z"/>
	</g>
</g>
</svg>
