<svg xmlns="http://www.w3.org/2000/svg" xmlns:xlink="http://www.w3.org/1999/xlink" preserveAspectRatio="xMidYMid" width="46" height="37.969" viewBox="0 0 46 37.969">
  <defs>
    <style>
      .cls-1 {
        fill: #f3af1d;
        fill-rule: evenodd;
      }
    </style>
  </defs>
  <path d="M45.232,0.393 C44.658,0.013 44.083,-0.177 43.508,0.203 L21.083,7.604 C21.083,7.604 21.083,7.604 21.083,7.604 L9.583,7.604 C4.217,7.603 -0.000,11.780 -0.000,17.092 C-0.000,22.189 4.058,26.227 8.956,26.549 L5.942,35.503 C5.558,36.071 5.751,36.640 6.134,37.209 C6.517,37.589 7.093,37.969 7.667,37.969 L15.333,37.969 C16.100,37.969 16.866,37.400 17.058,36.640 L20.445,26.582 L21.082,26.582 L43.508,33.985 C43.699,34.174 43.893,34.174 44.083,34.174 C44.467,34.174 44.850,33.985 45.232,33.793 C45.616,33.413 46.000,32.845 46.000,32.275 L46.000,1.910 C46.000,1.341 45.616,0.771 45.232,0.393 ZM14.615,35.730 L8.337,35.730 L11.744,26.582 L18.022,26.582 L14.615,35.730 ZM19.790,23.916 L11.332,23.916 L9.218,23.916 C5.623,23.918 2.875,21.051 2.875,17.302 C2.875,13.553 5.835,10.687 9.218,10.687 L19.790,10.687 L19.790,23.916 ZM42.693,30.808 L22.576,23.866 L22.576,9.983 L42.693,3.040 L42.693,30.808 Z" class="cls-1"/>
</svg>
