<svg xmlns="http://www.w3.org/2000/svg" xmlns:xlink="http://www.w3.org/1999/xlink" preserveAspectRatio="xMidYMid" width="22" height="22" viewBox="0 0 22 22">
  <defs>
    <style>
      .cls-1 {
        fill: #fff;
        fill-rule: evenodd;
      }
    </style>
  </defs>
  <path d="M21.604,19.742 L15.793,13.939 C18.312,10.516 18.032,5.663 14.934,2.569 C11.517,-0.842 5.950,-0.897 2.532,2.569 C-0.885,5.982 -0.885,11.541 2.532,14.953 C5.631,18.047 10.490,18.326 13.919,15.810 L19.730,21.614 C20.226,22.109 21.052,22.109 21.604,21.614 C22.100,21.118 22.100,20.236 21.604,19.742 ZM4.406,13.193 C2.036,10.827 2.036,6.919 4.406,4.552 C6.777,2.185 10.690,2.185 13.060,4.552 C15.430,6.919 15.430,10.771 13.060,13.193 C10.690,15.559 6.777,15.559 4.406,13.193 Z" class="cls-1"/>
</svg>
