<svg xmlns="http://www.w3.org/2000/svg" xmlns:xlink="http://www.w3.org/1999/xlink" preserveAspectRatio="xMidYMid" width="21.97" height="22" viewBox="0 0 21.97 22">
  <defs>
    <style>
      .cls-1 {
        fill: #ff4847;
        fill-rule: evenodd;
      }
    </style>
  </defs>
  <path d="M21.604,19.746 L15.793,13.944 C18.312,10.521 18.032,5.668 14.934,2.575 C11.517,-0.837 5.950,-0.892 2.533,2.575 C-0.885,5.987 -0.885,11.546 2.533,14.958 C5.631,18.052 10.490,18.330 13.919,15.815 L19.730,21.617 C20.226,22.113 21.053,22.113 21.604,21.617 C22.100,21.122 22.100,20.241 21.604,19.746 ZM4.407,13.197 C2.036,10.830 2.036,6.923 4.407,4.556 C6.777,2.190 10.690,2.190 13.060,4.556 C15.430,6.923 15.430,10.775 13.060,13.197 C10.690,15.563 6.777,15.563 4.407,13.197 Z" class="cls-1"/>
</svg>
