<svg xmlns="http://www.w3.org/2000/svg" xmlns:xlink="http://www.w3.org/1999/xlink" preserveAspectRatio="xMidYMid" width="16.031" height="16" viewBox="0 0 16.031 16">
  <defs>
    <style>
      .cls-1 {
        fill: #7e7e7e;
        fill-rule: evenodd;
      }
    </style>
  </defs>
  <path d="M15.765,14.361 L11.533,10.141 C13.368,7.652 13.164,4.122 10.908,1.873 C8.419,-0.609 4.364,-0.649 1.875,1.873 C-0.613,4.354 -0.613,8.397 1.875,10.879 C4.132,13.128 7.671,13.331 10.168,11.502 L14.400,15.722 C14.762,16.082 15.364,16.082 15.765,15.722 C16.126,15.361 16.126,14.721 15.765,14.361 ZM3.240,9.598 C1.514,7.877 1.514,5.035 3.240,3.314 C4.966,1.593 7.817,1.593 9.543,3.314 C11.269,5.035 11.269,7.836 9.543,9.598 C7.817,11.319 4.966,11.319 3.240,9.598 Z" class="cls-1"/>
</svg>
