<svg xmlns="http://www.w3.org/2000/svg" xmlns:xlink="http://www.w3.org/1999/xlink" preserveAspectRatio="xMidYMid" width="11" height="7" viewBox="0 0 11 7">
  <defs>
    <style>
      .cls-1 {
        fill: #3b3b3b;
        fill-rule: evenodd;
      }
    </style>
  </defs>
  <path d="M5.450,6.950 C5.450,6.950 5.474,6.950 5.450,6.950 C5.598,6.950 5.722,6.896 5.797,6.789 C5.797,6.789 5.797,6.762 5.821,6.762 C5.846,6.762 5.846,6.735 5.846,6.735 L10.735,1.034 C10.958,0.792 10.958,0.418 10.785,0.150 C10.586,-0.065 10.263,-0.065 10.065,0.150 C10.040,0.177 10.040,0.177 10.040,0.204 L5.457,4.562 L0.884,0.204 C0.710,-0.038 0.387,-0.065 0.189,0.096 C0.164,0.096 0.164,0.123 0.139,0.123 C-0.059,0.391 -0.034,0.766 0.189,1.007 L5.077,6.735 L5.102,6.762 C5.102,6.762 5.102,6.789 5.127,6.789 C5.177,6.896 5.301,6.950 5.450,6.950 C5.425,6.950 5.450,6.950 5.450,6.950 Z" class="cls-1"/>
</svg>
