<?xml version="1.0" encoding="utf-8"?>
<!-- Generator: Adobe Illustrator 19.2.1, SVG Export Plug-In . SVG Version: 6.00 Build 0)  -->
<svg version="1.1" id="Слой_1" xmlns="http://www.w3.org/2000/svg" xmlns:xlink="http://www.w3.org/1999/xlink" x="0px" y="0px"
	 viewBox="0 0 41 27" width="55" height="36" style="enable-background:new 0 0 41 27;" xml:space="preserve">
<style type="text/css">
	.st0{fill:#FF4847;}
</style>
<path class="st0" d="M21.4,26.4L20.5,27c-2.3,0-3.5-1.1-3.9-2H0V0h17.2c2.6,0,4,2.4,4.1,2.5l0.1,0.2V26.4z M1.8,23.1h16.2l0.1,0.8
	c0,0.1,0.2,0.9,1.4,1.1V3.2c-0.3-0.4-1.2-1.4-2.4-1.4H1.8V23.1z M20.5,27l-0.9-0.6V2.7l0.1-0.2C19.8,2.4,21.2,0,23.8,0H41v25H24.4
	C24,25.9,22.8,27,20.5,27z M21.4,3.2v21.9c1.3-0.3,1.4-1.1,1.4-1.1l0.1-0.8h16.2V1.8H23.8C22.6,1.8,21.7,2.8,21.4,3.2z M17.1,4.7
	H4.6v1.8h12.4V4.7z M17.1,8.3H4.6v1.8h12.4V8.3z M17.1,12H4.6v1.8h12.4V12z M17.1,15.6H4.6v1.8h12.4V15.6z M17.1,19.3H4.6v1.8h12.4
	V19.3z"/>
</svg>
