<svg xmlns="http://www.w3.org/2000/svg" xmlns:xlink="http://www.w3.org/1999/xlink" preserveAspectRatio="xMidYMid" width="35.125" height="23.66" viewBox="0 0 35.125 23.66">
  <defs>
    <style>
      .cls-1 {
        fill: #fff;
        fill-rule: evenodd;
      }
    </style>
  </defs>
  <path d="M18.354,23.127 L17.568,23.660 C15.564,23.660 14.590,22.715 14.200,21.883 L0.015,21.883 L0.015,0.015 L14.730,0.015 C16.941,0.015 18.190,2.093 18.242,2.182 L18.354,2.371 L18.354,23.127 ZM1.586,20.283 L15.486,20.283 L15.556,21.004 C15.569,21.079 15.706,21.756 16.782,21.985 L16.782,2.841 C16.511,2.475 15.767,1.615 14.731,1.615 L1.586,1.615 L1.586,20.283 ZM17.568,23.660 L16.782,23.127 L16.782,2.371 L16.894,2.181 C16.946,2.093 18.197,0.015 20.406,0.015 L35.121,0.015 L35.121,21.883 L20.937,21.883 C20.547,22.716 19.574,23.660 17.568,23.660 ZM18.354,2.842 L18.354,21.986 C19.492,21.748 19.580,21.012 19.581,21.003 L19.652,20.283 L33.550,20.283 L33.550,1.615 L20.406,1.615 C19.372,1.615 18.627,2.473 18.354,2.842 ZM14.643,4.103 L3.989,4.103 L3.989,5.704 L14.643,5.704 L14.643,4.103 ZM14.643,7.304 L3.989,7.304 L3.989,8.904 L14.643,8.904 L14.643,7.304 ZM14.643,10.504 L3.989,10.504 L3.989,12.104 L14.643,12.104 L14.643,10.504 ZM14.643,13.704 L3.989,13.704 L3.989,15.305 L14.643,15.305 L14.643,13.704 ZM14.643,16.904 L3.989,16.904 L3.989,18.505 L14.643,18.505 L14.643,16.904 Z" class="cls-1"/>
</svg>
