<?xml version="1.0" encoding="utf-8"?>
<!-- Generator: Adobe Illustrator 19.2.1, SVG Export Plug-In . SVG Version: 6.00 Build 0)  -->
<svg version="1.1" id="Слой_1" xmlns="http://www.w3.org/2000/svg" xmlns:xlink="http://www.w3.org/1999/xlink" x="0px" y="0px"
	 viewBox="0 0 11 11" style="enable-background:new 0 0 11 11;" xml:space="preserve">
<style type="text/css">
	.st0{fill:#FF4847;}
</style>
<g>
	<g>
		<path class="st0" d="M10.2,8.1L7.1,7C6.7,6.9,6.5,6.6,6.6,6.1l0,0C7.4,5.3,8,4.5,8,3.2c0-1.7-1.1-3.1-2.4-3.1S3.1,1.6,3.1,3.3
			c0,1.2,0.6,2.1,1.5,2.9l0,0c0,0.5-0.2,0.7-0.6,0.8L0.9,8.3C0.5,8.5,0,8.9,0,9.3V11h11V9.3C11,8.9,10.6,8.2,10.2,8.1z"/>
	</g>
</g>
</svg>
