<svg xmlns="http://www.w3.org/2000/svg" xmlns:xlink="http://www.w3.org/1999/xlink" preserveAspectRatio="xMidYMid" width="70" height="70" viewBox="0 0 70 70">
  <defs>
    <style>
      .cls-1 {
        fill: #fff;
        fill-rule: evenodd;
      }
    </style>
  </defs>
  <path d="M-0.000,69.997 L-0.000,-0.002 L70.000,-0.002 L70.000,69.997 L-0.000,69.997 ZM49.831,36.144 C48.248,34.433 46.136,33.307 43.505,32.750 L43.505,32.525 C45.333,31.752 46.771,30.560 47.808,28.937 C48.854,27.314 49.372,25.464 49.372,23.383 C49.372,21.583 48.990,20.001 48.237,18.622 C47.484,17.253 46.340,16.146 44.815,15.327 C43.407,14.562 41.893,14.064 40.277,13.830 C38.665,13.586 36.290,13.468 33.160,13.468 L18.092,13.468 L18.092,56.121 L35.164,56.121 C38.127,56.121 40.562,55.854 42.478,55.318 C44.405,54.779 46.165,53.890 47.768,52.630 C49.128,51.573 50.203,50.253 51.005,48.649 C51.806,47.045 52.208,45.177 52.208,43.057 C52.208,40.162 51.415,37.855 49.831,36.144 ZM38.371,47.466 C37.267,47.946 36.171,48.200 35.106,48.239 C34.040,48.279 32.114,48.298 29.327,48.298 L28.749,48.298 L28.749,37.619 L30.726,37.619 C32.632,37.619 34.158,37.630 35.292,37.659 C36.426,37.689 37.325,37.825 37.971,38.080 C39.037,38.461 39.839,39.018 40.376,39.770 C40.915,40.514 41.177,41.540 41.177,42.861 C41.177,43.887 40.953,44.806 40.503,45.618 C40.053,46.429 39.349,47.045 38.371,47.466 ZM36.231,29.661 C35.448,30.021 34.685,30.219 33.952,30.256 C33.218,30.295 31.928,30.315 30.100,30.315 L28.749,30.315 L28.749,21.291 L29.493,21.291 C31.400,21.291 32.838,21.300 33.806,21.330 C34.774,21.359 35.604,21.524 36.309,21.839 C37.062,22.162 37.609,22.690 37.961,23.412 C38.313,24.137 38.489,24.841 38.489,25.534 C38.489,26.462 38.323,27.283 37.999,27.998 C37.677,28.701 37.081,29.258 36.231,29.661 Z" class="cls-1"/>
</svg>
