<svg xmlns="http://www.w3.org/2000/svg" xmlns:xlink="http://www.w3.org/1999/xlink" preserveAspectRatio="xMidYMid" width="7" height="11" viewBox="0 0 7 11">
  <defs>
    <style>
      .cls-1 {
        fill: #55c0a6;
        fill-rule: evenodd;
      }
    </style>
  </defs>
  <path d="M7.004,5.507 C7.004,5.507 7.004,5.482 7.004,5.507 C7.004,5.357 6.950,5.232 6.842,5.157 C6.842,5.157 6.815,5.157 6.815,5.132 C6.815,5.107 6.788,5.107 6.788,5.107 L1.046,0.175 C0.803,-0.050 0.426,-0.050 0.156,0.125 C-0.060,0.325 -0.060,0.651 0.156,0.851 C0.183,0.876 0.183,0.876 0.210,0.876 L4.600,5.500 L0.210,10.113 C-0.033,10.288 -0.060,10.614 0.102,10.814 C0.102,10.839 0.129,10.839 0.129,10.864 C0.399,11.064 0.776,11.039 1.019,10.814 L6.788,5.883 L6.815,5.858 C6.815,5.858 6.842,5.858 6.842,5.832 C6.950,5.782 7.004,5.657 7.004,5.507 C7.004,5.532 7.004,5.507 7.004,5.507 Z" class="cls-1"/>
</svg>
