<svg xmlns="http://www.w3.org/2000/svg" xmlns:xlink="http://www.w3.org/1999/xlink" preserveAspectRatio="xMidYMid" width="30" height="30" viewBox="0 0 30 30">
  <defs>
    <style>
      .cls-1 {
        fill: #f2ae1c;
        fill-rule: evenodd;
      }
    </style>
  </defs>
  <path d="M-0.000,29.999 L-0.000,-0.001 L30.000,-0.001 L30.000,29.999 L-0.000,29.999 ZM21.356,15.491 C20.677,14.758 19.772,14.275 18.645,14.036 L18.645,13.940 C19.428,13.609 20.045,13.098 20.489,12.402 C20.937,11.707 21.159,10.914 21.159,10.022 C21.159,9.251 20.996,8.572 20.673,7.981 C20.350,7.395 19.860,6.921 19.206,6.569 C18.603,6.242 17.954,6.028 17.262,5.928 C16.571,5.823 15.553,5.772 14.211,5.772 L7.754,5.772 L7.754,24.052 L15.070,24.052 C16.340,24.052 17.383,23.939 18.205,23.708 C19.031,23.477 19.785,23.097 20.472,22.556 C21.055,22.103 21.515,21.537 21.859,20.850 C22.203,20.163 22.375,19.362 22.375,18.453 C22.375,17.213 22.035,16.224 21.356,15.491 ZM16.445,20.343 C15.971,20.549 15.502,20.657 15.045,20.675 C14.588,20.691 13.763,20.700 12.569,20.700 L12.321,20.700 L12.321,16.124 L13.168,16.124 C13.985,16.124 14.639,16.127 15.125,16.140 C15.611,16.153 15.996,16.211 16.273,16.321 C16.730,16.484 17.074,16.723 17.304,17.045 C17.535,17.364 17.647,17.804 17.647,18.370 C17.647,18.810 17.551,19.203 17.358,19.551 C17.166,19.899 16.864,20.163 16.445,20.343 ZM15.527,12.712 C15.192,12.867 14.865,12.951 14.551,12.967 C14.236,12.985 13.683,12.993 12.900,12.993 L12.321,12.993 L12.321,9.125 L12.640,9.125 C13.457,9.125 14.073,9.129 14.488,9.142 C14.903,9.155 15.259,9.225 15.561,9.360 C15.884,9.498 16.118,9.725 16.269,10.034 C16.420,10.344 16.495,10.647 16.495,10.944 C16.495,11.342 16.424,11.694 16.285,12.000 C16.147,12.302 15.892,12.540 15.527,12.712 Z" class="cls-1"/>
</svg>
