<?xml version="1.0" encoding="utf-8"?>
<!-- Generator: Adobe Illustrator 19.2.1, SVG Export Plug-In . SVG Version: 6.00 Build 0)  -->
<svg version="1.1" id="Слой_1" xmlns="http://www.w3.org/2000/svg" xmlns:xlink="http://www.w3.org/1999/xlink" x="0px" y="0px"
	 viewBox="0 0 30 30" style="enable-background:new 0 0 30 30;" xml:space="preserve">
<style type="text/css">
	.st0{fill:#F3AF1D;}
	.st1{fill:#FFFFFF;}
</style>
<rect class="st0" width="30" height="30"/>
<g>
	<g>
		<path class="st1" d="M23,22.9H7v-1c0-1.7,0-3.3,2.4-3.8h0.1c1.1-0.3,2.5-0.6,2.8-1.1c0.1-0.2,0-0.4-0.1-0.7
			c-1.6-3-1.9-5.3-0.8-7.1c0.7-1.2,2.1-1.9,3.7-1.9c1.6,0,2.9,0.7,3.6,1.9c1.1,1.8,0.8,4.1-0.8,7.1c-0.2,0.3-0.2,0.6-0.1,0.7
			c0.2,0.5,1.6,0.8,2.8,1.1h0.1c2.4,0.6,2.4,2.1,2.4,3.8L23,22.9z M8.2,21.7h13.6c0-1.6,0-2.1-1.5-2.5h-0.1
			c-1.6-0.4-3.1-0.7-3.6-1.8c-0.2-0.5-0.2-1.1,0.2-1.8c1.4-2.6,1.7-4.5,0.9-5.9c-0.5-0.9-1.5-1.3-2.6-1.3c-1.2,0-2.1,0.5-2.6,1.4
			c-0.8,1.4-0.5,3.3,0.9,5.9c0.4,0.7,0.4,1.3,0.2,1.8c-0.5,1.1-2,1.4-3.6,1.8H9.9C8.3,19.6,8.2,20.1,8.2,21.7z"/>
	</g>
</g>
</svg>
