<svg width="200" height="73" viewBox="0 0 200 73" fill="none" xmlns="http://www.w3.org/2000/svg">
<path d="M105.103 36.4496L101.677 30.0768L106.602 16.9133L100.17 9.11432C100.17 9.11432 92.2502 12.559 79.917 24.2093C67.5838 35.8596 63.1416 46.0815 63.1416 46.0815L67.8659 51.4427L86.8288 42.8946L84.6358 47.3117L94.0734 50.8362L97.843 39.439L105.103 36.4496ZM90.1836 31.6384L84.0944 33.7408C84.0944 33.7408 85.792 31.0265 87.9171 28.9609C90.0421 26.8954 92.0384 26.0734 92.0384 26.0734L90.1836 31.6384Z" fill="#ED1C24"/>
<path d="M77.316 13.5839L78.8223 11.1415L71.3612 4.49196C71.3612 4.49196 65.1804 10.0006 61.0836 14.1293C56.0004 19.2523 50.2156 25.9974 50.2156 25.9974L60.2103 6.87406L51.1094 0.426727L16.0072 34.4789L9.50556 32.386C9.50556 32.386 6.00064 36.3556 3.0837 41.8916C0.16675 47.4277 0 53.1416 0 53.1416L8.61174 55.7203L37.4216 25.9332C37.4216 25.9332 33.7507 31.3156 31.8335 36.108C29.9163 40.9004 28.8668 48.3304 28.8668 48.3304L41.5951 53.2716L58.7704 27.7722C58.7704 27.7722 55.6669 34.7861 53.9165 39.1648C52.1107 43.6837 50.0172 51.9772 50.0172 51.9772L58.4306 54.7667C58.4306 54.7667 64.3751 39.1217 67.5837 32.2653C70.9376 25.0979 77.316 13.5839 77.316 13.5839Z" fill="#ED1C24"/>
<path d="M146.568 25.4662L139.726 20.0955C139.726 20.0955 141.312 18.0331 142.375 16.3601C143.437 14.6872 144.572 11.8906 144.572 11.8906L138.824 5.04596C138.824 5.04596 127.188 9.79135 118.438 15.9879C109.688 22.1853 104.401 28.8567 104.401 28.8567L109.477 37.0005C109.477 37.0005 106.062 38.9164 102.938 40.9615C99.8129 43.0067 97.2998 45.2666 97.2998 45.2666L104.824 51.2422C104.824 51.2422 111.625 46.4764 115.875 43.936C120.125 41.3956 125.765 38.4862 125.765 38.4862L120.292 50.6208L130.064 52.7944C130.064 52.7944 135.281 42.944 137.938 38.5528C141.21 33.1461 146.568 25.4662 146.568 25.4662ZM126.75 26.2756C123.25 27.7009 117.349 30.6848 117.349 30.6848C117.349 30.6848 120.812 26.4613 124.25 23.4868C127.688 20.5123 131.303 18.2682 131.303 18.2682L135.279 23.2126C135.279 23.2126 130.25 24.8503 126.75 26.2756Z" fill="#ED1C24"/>
<path d="M192.187 9.17779C192.187 9.17779 182.751 12.7039 176.188 16.2982C169.626 19.8925 161.951 24.985 161.951 24.985C161.951 24.985 164.688 20.8838 166.25 18.9005C167.813 16.9173 171.737 13.0432 171.737 13.0432L164.202 5.98782C164.202 5.98782 156.47 14.0979 149.25 24.6019C141.62 35.7052 136.844 46.6323 136.844 46.6323L146.356 51.2453L151.691 42.56C151.691 42.56 159.125 46.9113 165.938 49.5763C172.75 52.2412 183.719 56.0643 183.719 56.0643L186.652 46.6331C186.652 46.6331 181.563 44.7423 177.563 43.0686C173.564 41.3956 169.543 39.5738 169.543 39.5738C169.543 39.5738 183.309 31.7591 190.314 26.8319C197.626 21.6885 199.459 16.918 199.459 16.918L192.187 9.17779ZM170.875 30.1794C168.5 31.8524 164.545 33.8137 164.545 33.8137L162.565 32.9204C162.565 32.9204 164.812 30.9849 167.812 29.4358C170.812 27.8866 174.744 26.8852 174.744 26.8852C174.744 26.8852 173.251 28.5065 170.875 30.1794Z" fill="#ED1C24"/>
<path d="M51.9089 66.7139L50.2534 61.3508H51.2009L52.0614 64.4463L52.3824 65.5979C52.3959 65.5409 52.4894 65.1721 52.6624 64.4919L53.5234 61.3508H54.4654L55.2754 64.4617L55.5454 65.4864L55.8564 64.4513L56.7834 61.3503H57.6744L55.9834 66.7134H55.0309L54.1699 63.5014L53.9614 62.5872L52.8664 66.7129H51.9089V66.7139Z" fill="#333333"/>
<path d="M59.4421 66.7139L57.7866 61.3508H58.7341L59.5946 64.4463L59.9156 65.5979C59.9291 65.5409 60.0226 65.1721 60.1956 64.4919L61.0566 61.3508H61.9986L62.8086 64.4617L63.0786 65.4864L63.3896 64.4513L64.3166 61.3503H65.2076L63.5166 66.7134H62.5641L61.7031 63.5014L61.4946 62.5872L60.3996 66.7129H59.4421V66.7139Z" fill="#333333"/>
<path d="M66.9743 66.7139L65.3188 61.3508H66.2663L67.1268 64.4463L67.4478 65.5979C67.4613 65.5409 67.5548 65.1721 67.7278 64.4919L68.5888 61.3508H69.5308L70.3408 64.4617L70.6108 65.4864L70.9218 64.4513L71.8488 61.3503H72.7398L71.0488 66.7134H70.0963L69.2353 63.5014L69.0268 62.5872L67.9318 66.7129H66.9743V66.7139Z" fill="#333333"/>
<path d="M73.1934 66.7139V65.6788H74.2374V66.7139H73.1934Z" fill="#333333"/>
<path d="M75.832 66.7139V61.3508H76.652V62.1033C76.822 61.8411 77.0475 61.6299 77.3295 61.4698C77.611 61.3101 77.932 61.2303 78.292 61.2303C78.6925 61.2303 79.021 61.3126 79.2775 61.4777C79.534 61.6428 79.7145 61.8733 79.82 62.1698C80.2475 61.5436 80.8045 61.2303 81.4905 61.2303C82.027 61.2303 82.4395 61.3776 82.7285 61.6725C83.017 61.967 83.1615 62.4206 83.1615 63.0334V66.7149H82.25V63.3368C82.25 62.9734 82.22 62.7111 82.161 62.5515C82.1015 62.3914 81.994 62.2625 81.8375 62.1653C81.681 62.0677 81.498 62.0186 81.2875 62.0186C80.907 62.0186 80.5915 62.144 80.34 62.3949C80.089 62.6457 79.9635 63.0473 79.9635 63.5996V66.7154H79.0465V63.2312C79.0465 62.8272 78.972 62.5238 78.8225 62.322C78.673 62.1202 78.4285 62.0191 78.089 62.0191C77.831 62.0191 77.5925 62.0865 77.3735 62.2208C77.1545 62.3557 76.996 62.5525 76.8975 62.8118C76.799 63.0706 76.75 63.4444 76.75 63.9327V66.7154H75.832V66.7139Z" fill="#333333"/>
<path d="M88.0509 66.0526C87.7114 66.3386 87.3849 66.5404 87.0704 66.6584C86.7564 66.7764 86.4194 66.8349 86.0599 66.8349C85.4659 66.8349 85.0089 66.6911 84.6899 66.4031C84.3704 66.1155 84.2109 65.7477 84.2109 65.2995C84.2109 65.0373 84.2714 64.7968 84.3914 64.5802C84.5119 64.363 84.6699 64.1885 84.8654 64.0571C85.0604 63.9258 85.2804 63.8266 85.5249 63.7592C85.7049 63.7116 85.9764 63.6665 86.3399 63.6228C87.0804 63.5351 87.6254 63.431 87.9749 63.3095C87.9784 63.1851 87.9799 63.1063 87.9799 63.0721C87.9799 62.7017 87.8934 62.441 87.7199 62.2893C87.4859 62.084 87.1379 61.9814 86.6759 61.9814C86.2449 61.9814 85.9264 62.0562 85.7209 62.206C85.5154 62.3562 85.3639 62.6209 85.2649 63.0012L84.3689 62.8802C84.4504 62.4995 84.5844 62.1926 84.7714 61.9586C84.9579 61.7246 85.2279 61.5446 85.5814 61.4182C85.9344 61.2918 86.3434 61.2288 86.8089 61.2288C87.2709 61.2288 87.6459 61.2824 87.9349 61.3904C88.2234 61.498 88.4354 61.6334 88.5709 61.7965C88.7064 61.9601 88.8019 62.1663 88.8564 62.4152C88.8869 62.5704 88.9019 62.8495 88.9019 63.2535V64.4651C88.9019 65.3104 88.9214 65.8448 88.9604 66.0684C88.9994 66.2925 89.0769 66.5072 89.1924 66.7124H88.2349C88.1394 66.5255 88.0779 66.3049 88.0509 66.0526ZM87.9744 64.0224C87.6414 64.1568 87.1424 64.2718 86.4769 64.366C86.1004 64.4195 85.8334 64.48 85.6774 64.5474C85.5214 64.6149 85.4004 64.7135 85.3159 64.8429C85.2309 64.9728 85.1884 65.1166 85.1884 65.2747C85.1884 65.5171 85.2809 65.7189 85.4659 65.881C85.6509 66.0432 85.9219 66.1235 86.2784 66.1235C86.6319 66.1235 86.9454 66.0466 87.2204 65.8934C87.4954 65.7402 87.6974 65.531 87.8264 65.2643C87.9249 65.0591 87.9744 64.7562 87.9744 64.3556V64.0224Z" fill="#333333"/>
<path d="M90.2817 68.7793L90.1797 67.9256C90.3797 67.9796 90.5547 68.0064 90.7047 68.0064C90.9082 68.0064 91.0712 67.9732 91.1937 67.9057C91.3162 67.8383 91.4157 67.7441 91.4942 67.6232C91.5522 67.5319 91.6457 67.3064 91.7747 66.9464C91.7917 66.8959 91.8187 66.8215 91.8562 66.7243L89.8037 61.3508H90.7922L91.9177 64.4567C92.0637 64.8509 92.1947 65.2648 92.3097 65.6991C92.4152 65.2817 92.5407 64.8747 92.6867 64.4771L93.8432 61.3508H94.7602L92.7027 66.8052C92.4817 67.3941 92.3102 67.8001 92.1882 68.0222C92.0252 68.3217 91.8387 68.5413 91.6282 68.6811C91.4172 68.8204 91.1662 68.8908 90.8742 68.8908C90.6957 68.8908 90.4987 68.8536 90.2817 68.7793Z" fill="#333333"/>
<path d="M99.068 66.0526C98.728 66.3386 98.4015 66.5404 98.0875 66.6584C97.7735 66.7764 97.436 66.8349 97.0765 66.8349C96.4825 66.8349 96.0255 66.6911 95.7065 66.4031C95.3875 66.1155 95.228 65.7477 95.228 65.2995C95.228 65.0373 95.288 64.7968 95.4085 64.5802C95.529 64.363 95.687 64.1885 95.882 64.0571C96.077 63.9258 96.297 63.8266 96.5415 63.7592C96.7215 63.7116 96.993 63.6665 97.3565 63.6228C98.0965 63.5351 98.6415 63.431 98.9915 63.3095C98.995 63.1851 98.997 63.1063 98.997 63.0721C98.997 62.7017 98.9105 62.441 98.737 62.2893C98.5025 62.084 98.1545 61.9814 97.693 61.9814C97.2615 61.9814 96.943 62.0562 96.738 62.206C96.5325 62.3562 96.3805 62.6209 96.282 63.0012L95.3855 62.8802C95.467 62.4995 95.6015 62.1926 95.788 61.9586C95.975 61.7246 96.245 61.5446 96.598 61.4182C96.951 61.2918 97.36 61.2288 97.8255 61.2288C98.287 61.2288 98.6625 61.2824 98.951 61.3904C99.2395 61.498 99.452 61.6334 99.5875 61.7965C99.723 61.9601 99.8185 62.1663 99.8725 62.4152C99.9035 62.5704 99.9185 62.8495 99.9185 63.2535V64.4651C99.9185 65.3104 99.938 65.8448 99.977 66.0684C100.016 66.2925 100.093 66.5072 100.209 66.7124H99.251C99.1565 66.5255 99.0955 66.3049 99.068 66.0526ZM98.9915 64.0224C98.659 64.1568 98.16 64.2718 97.4945 64.366C97.1175 64.4195 96.851 64.48 96.6945 64.5474C96.538 64.6149 96.4175 64.7135 96.3325 64.8429C96.248 64.9728 96.2055 65.1166 96.2055 65.2747C96.2055 65.5171 96.298 65.7189 96.483 65.881C96.668 66.0432 96.939 66.1235 97.2955 66.1235C97.6485 66.1235 97.9625 66.0466 98.238 65.8934C98.513 65.7402 98.715 65.531 98.844 65.2643C98.9425 65.0591 98.9915 64.7562 98.9915 64.3556V64.0224Z" fill="#333333"/>
<path d="M101.345 66.7139V59.3102H102.261V63.5321L104.431 61.3508H105.618L103.55 63.3408L105.827 66.7144H104.696L102.908 63.9724L102.261 64.5886V66.7144H101.345V66.7139Z" fill="#333333"/>
<path d="M106.188 65.1131L107.094 64.9718C107.145 65.3322 107.287 65.6084 107.52 65.8002C107.752 65.9921 108.077 66.0883 108.495 66.0883C108.916 66.0883 109.229 66.003 109.432 65.833C109.636 65.6629 109.738 65.4636 109.738 65.2346C109.738 65.0293 109.647 64.8677 109.468 64.7492C109.342 64.6684 109.03 64.5658 108.53 64.4414C107.858 64.2728 107.392 64.1275 107.132 64.0046C106.872 63.8816 106.676 63.7116 106.541 63.4945C106.407 63.2773 106.34 63.0374 106.34 62.7751C106.34 62.5362 106.395 62.3145 106.506 62.1108C106.616 61.907 106.766 61.738 106.956 61.6036C107.099 61.499 107.293 61.4108 107.54 61.3384C107.786 61.266 108.05 61.2298 108.332 61.2298C108.756 61.2298 109.129 61.2903 109.449 61.4113C109.77 61.5327 110.007 61.6968 110.16 61.9036C110.313 62.1108 110.418 62.3879 110.476 62.7345L109.579 62.8559C109.539 62.5798 109.421 62.3641 109.225 62.209C109.03 62.0543 108.754 61.9769 108.398 61.9769C107.977 61.9769 107.676 62.0458 107.496 62.1837C107.316 62.322 107.226 62.4831 107.226 62.669C107.226 62.7865 107.264 62.8926 107.339 62.9873C107.413 63.085 107.53 63.1658 107.69 63.2297C107.782 63.2629 108.052 63.3408 108.5 63.4617C109.148 63.6338 109.601 63.7741 109.857 63.8836C110.114 63.9932 110.315 64.1523 110.461 64.361C110.607 64.5698 110.68 64.829 110.68 65.1384C110.68 65.4413 110.591 65.7274 110.413 65.9951C110.235 66.2623 109.977 66.4695 109.641 66.6163C109.305 66.7625 108.924 66.8354 108.5 66.8354C107.797 66.8354 107.261 66.6906 106.893 66.4011C106.525 66.1116 106.29 65.6822 106.188 65.1131Z" fill="#333333"/>
<path d="M112.617 66.7139H111.766V59.3102H112.683V61.9512C113.07 61.4698 113.564 61.2293 114.165 61.2293C114.498 61.2293 114.813 61.2958 115.11 61.4286C115.407 61.562 115.652 61.7489 115.844 61.9893C116.036 62.2298 116.186 62.5203 116.294 62.8604C116.403 63.201 116.457 63.5644 116.457 63.9511C116.457 64.8702 116.228 65.5806 115.77 66.0823C115.311 66.584 114.761 66.8349 114.119 66.8349C113.481 66.8349 112.98 66.5711 112.617 66.0422V66.7139ZM112.606 63.9922C112.606 64.6352 112.695 65.0997 112.871 65.3863C113.159 65.8538 113.55 66.0883 114.042 66.0883C114.443 66.0883 114.789 65.9153 115.081 65.5702C115.373 65.2256 115.519 64.7111 115.519 64.0279C115.519 63.3274 115.38 62.8108 115.099 62.4772C114.819 62.144 114.481 61.9774 114.083 61.9774C113.682 61.9774 113.336 62.15 113.044 62.495C112.752 62.8401 112.606 63.3393 112.606 63.9922Z" fill="#333333"/>
<path d="M117.23 64.0324C117.23 63.0394 117.509 62.3036 118.066 61.8257C118.531 61.4281 119.098 61.2298 119.767 61.2298C120.51 61.2298 121.118 61.4713 121.59 61.9546C122.062 62.438 122.298 63.1048 122.298 63.957C122.298 64.6471 122.193 65.19 121.985 65.5856C121.776 65.9812 121.472 66.2881 121.073 66.5067C120.674 66.7253 120.239 66.8349 119.767 66.8349C119.009 66.8349 118.398 66.5944 117.931 66.1131C117.464 65.6317 117.23 64.9381 117.23 64.0324ZM118.173 64.0324C118.173 64.7195 118.324 65.2336 118.626 65.5752C118.928 65.9167 119.308 66.0878 119.767 66.0878C120.222 66.0878 120.6 65.9158 120.902 65.5727C121.204 65.2291 121.356 64.7056 121.356 64.0016C121.356 63.3388 121.203 62.8361 120.9 62.4945C120.596 62.1529 120.218 61.9819 119.766 61.9819C119.308 61.9819 118.927 62.1519 118.625 62.492C118.324 62.8321 118.173 63.3452 118.173 64.0324Z" fill="#333333"/>
<path d="M123.363 66.7139V61.3508H124.188V62.1643C124.398 61.7836 124.593 61.5332 124.771 61.4113C124.949 61.2903 125.145 61.2298 125.359 61.2298C125.668 61.2298 125.982 61.3275 126.302 61.5228L125.986 62.3661C125.762 62.2347 125.538 62.1693 125.313 62.1693C125.113 62.1693 124.933 62.2293 124.774 62.3483C124.614 62.4677 124.5 62.6338 124.432 62.846C124.33 63.1687 124.279 63.5227 124.279 63.9064V66.7144H123.363V66.7139Z" fill="#333333"/>
<path d="M126.531 66.7139V65.6788H127.575V66.7139H126.531Z" fill="#333333"/>
<path d="M129.159 66.7139V61.3508H129.984V62.1643C130.194 61.7836 130.389 61.5332 130.567 61.4113C130.745 61.2903 130.941 61.2298 131.155 61.2298C131.464 61.2298 131.778 61.3275 132.098 61.5228L131.782 62.3661C131.558 62.2347 131.334 62.1693 131.109 62.1693C130.909 62.1693 130.729 62.2293 130.57 62.3483C130.41 62.4677 130.296 62.6338 130.228 62.846C130.126 63.1687 130.075 63.5227 130.075 63.9064V66.7144H129.159V66.7139Z" fill="#333333"/>
<path d="M136.188 66.7139V65.9262C135.767 66.532 135.195 66.8349 134.471 66.8349C134.152 66.8349 133.854 66.7744 133.577 66.6534C133.3 66.532 133.095 66.3798 132.961 66.1964C132.827 66.0129 132.733 65.7883 132.679 65.5221C132.642 65.3441 132.623 65.0611 132.623 64.6739V61.3508H133.54V64.3254C133.54 64.8003 133.558 65.1201 133.596 65.2851C133.653 65.5241 133.775 65.7115 133.962 65.8483C134.149 65.9847 134.38 66.0531 134.655 66.0531C134.93 66.0531 135.188 65.9827 135.429 65.8434C135.67 65.7036 135.841 65.5132 135.941 65.2728C136.041 65.0323 136.091 64.6828 136.091 64.2247V61.3513H137.008V66.7144H136.188V66.7139Z" fill="#333333"/>
</svg>
