<?xml version="1.0" encoding="UTF-8" standalone="no"?>
<!-- Created with Inkscape (http://www.inkscape.org/) -->

<svg
   xmlns:dc="http://purl.org/dc/elements/1.1/"
   xmlns:cc="http://creativecommons.org/ns#"
   xmlns:rdf="http://www.w3.org/1999/02/22-rdf-syntax-ns#"
   xmlns:svg="http://www.w3.org/2000/svg"
   xmlns="http://www.w3.org/2000/svg"
   xmlns:sodipodi="http://sodipodi.sourceforge.net/DTD/sodipodi-0.dtd"
   xmlns:inkscape="http://www.inkscape.org/namespaces/inkscape"
   width="30"
   height="30"
   viewBox="0 0 30 30"
   id="svg5069"
   version="1.1"
   inkscape:version="0.91 r13725"
   sodipodi:docname="mayak_tw2_hover.svg">
  <defs
     id="defs5071" />
  <sodipodi:namedview
     id="base"
     pagecolor="#ffffff"
     bordercolor="#666666"
     borderopacity="1.0"
     inkscape:pageopacity="0.0"
     inkscape:pageshadow="2"
     inkscape:zoom="7.919596"
     inkscape:cx="42.934198"
     inkscape:cy="-16.57758"
     inkscape:document-units="px"
     inkscape:current-layer="layer1"
     showgrid="false"
     inkscape:window-width="1920"
     inkscape:window-height="1138"
     inkscape:window-x="-8"
     inkscape:window-y="-8"
     inkscape:window-maximized="1"
     units="px" />
  <metadata
     id="metadata5074">
    <rdf:RDF>
      <cc:Work
         rdf:about="">
        <dc:format>image/svg+xml</dc:format>
        <dc:type
           rdf:resource="http://purl.org/dc/dcmitype/StillImage" />
        <dc:title></dc:title>
      </cc:Work>
    </rdf:RDF>
  </metadata>
  <g
     inkscape:label="Layer 1"
     inkscape:groupmode="layer"
     id="layer1"
     transform="translate(0,-1022.3622)">
    <path
       style="fill:#39b9dc;fill-opacity:1"
       d="M 0 0 L 0 30 L 30 30 L 30 0 L 0 0 z M 19.242188 6.7050781 C 19.900085 6.6800469 20.697768 6.7761406 21.191406 6.9628906 C 21.485869 7.0743906 21.980953 7.3538312 22.291016 7.5820312 C 22.60108 7.8102313 22.952313 7.9960938 23.072266 7.9960938 C 23.336634 7.9960938 24.273674 7.6946125 24.978516 7.3828125 C 25.59744 7.1083125 25.566406 7.1113781 25.566406 7.3300781 C 25.566406 7.5940781 24.860428 8.59965 24.416016 8.96875 C 24.201432 9.14695 24.054091 9.3195156 24.087891 9.3535156 C 24.121686 9.3873156 24.499458 9.3237375 24.927734 9.2109375 C 26.106531 8.9005375 26.126953 8.8970437 26.126953 9.0273438 C 26.126953 9.0924438 25.663461 9.6007031 25.097656 10.158203 L 24.070312 11.171875 L 24.070312 11.953125 C 24.070313 12.945325 23.84726 14.248613 23.486328 15.382812 C 22.061756 19.859113 18.620958 23.023006 14.109375 24.003906 L 14.109375 24.005859 C 13.337862 24.173359 10.380473 24.330563 9.9472656 24.226562 C 9.8701114 24.208163 9.4912409 24.142078 9.1054688 24.080078 C 8.7196863 24.017878 8.0465801 23.863781 7.609375 23.738281 C 6.6743913 23.469881 4.8046875 22.606459 4.8046875 22.443359 C 4.8046875 22.362559 5.1529286 22.315297 5.9960938 22.279297 C 7.2929726 22.224297 8.1023392 22.039481 9.1835938 21.550781 C 10.015279 21.174981 10.789062 20.701459 10.789062 20.568359 C 10.789063 20.509159 10.555705 20.414422 10.269531 20.357422 C 9.4885678 20.200522 8.602032 19.735253 8.0429688 19.189453 C 7.5688817 18.726653 6.9571481 17.808994 6.9550781 17.558594 C 6.9544701 17.477394 7.1340093 17.442306 7.5390625 17.441406 C 8.1530828 17.440106 8.5449219 17.370972 8.5449219 17.263672 C 8.5449219 17.228572 8.3862506 17.143172 8.1933594 17.076172 C 7.2980298 16.762872 6.2406584 15.816875 5.7871094 14.921875 C 5.4986485 14.352675 5.2212331 13.153644 5.3476562 13.027344 C 5.3971517 12.977244 5.5797922 13.000937 5.7949219 13.085938 C 6.2581784 13.266537 6.9307597 13.412656 6.9960938 13.347656 C 7.0236393 13.320156 6.876251 13.114425 6.6699219 12.890625 C 5.7998811 11.946725 5.3642967 10.895034 5.3652344 9.7402344 C 5.365966 8.7997344 5.7066664 7.6230469 5.9785156 7.6230469 C 6.0435409 7.6230469 6.2263862 7.7863281 6.3847656 7.9863281 C 6.7720424 8.4752281 8.0608536 9.5540563 8.9042969 10.097656 C 9.8476796 10.705756 11.140204 11.304403 12.144531 11.595703 C 13.096527 11.871903 14.820629 12.163031 15.029297 12.082031 C 15.138427 12.040231 15.157587 11.910344 15.117188 11.464844 C 14.922369 9.3163437 16.487768 7.2343844 18.646484 6.7714844 C 18.818317 6.7346344 19.022888 6.7134219 19.242188 6.7050781 z "
       transform="translate(0,1022.3622)"
       id="path4174" />
    <path
       style="fill:#000000"
       d=""
       id="path4149"
       inkscape:connector-curvature="0" />
    <path
       style="fill:#000000"
       d=""
       id="path4147"
       inkscape:connector-curvature="0" />
    <path
       style="fill:#000000"
       d=""
       id="path4145"
       inkscape:connector-curvature="0" />
    <path
       style="fill:#000000"
       d=""
       id="path4164"
       inkscape:connector-curvature="0" />
  </g>
</svg>
