<?xml version="1.0" encoding="UTF-8" standalone="no"?>
<!-- Created with Inkscape (http://www.inkscape.org/) -->

<svg
   xmlns:dc="http://purl.org/dc/elements/1.1/"
   xmlns:cc="http://creativecommons.org/ns#"
   xmlns:rdf="http://www.w3.org/1999/02/22-rdf-syntax-ns#"
   xmlns:svg="http://www.w3.org/2000/svg"
   xmlns="http://www.w3.org/2000/svg"
   xmlns:sodipodi="http://sodipodi.sourceforge.net/DTD/sodipodi-0.dtd"
   xmlns:inkscape="http://www.inkscape.org/namespaces/inkscape"
   width="30"
   height="30"
   viewBox="0 0 30 30"
   id="svg5069"
   version="1.1"
   inkscape:version="0.91 r13725"
   sodipodi:docname="mayak_yt.svg">
  <defs
     id="defs5071" />
  <sodipodi:namedview
     id="base"
     pagecolor="#ffffff"
     bordercolor="#666666"
     borderopacity="1.0"
     inkscape:pageopacity="0.0"
     inkscape:pageshadow="2"
     inkscape:zoom="3.959798"
     inkscape:cx="27.48475"
     inkscape:cy="6.3332045"
     inkscape:document-units="px"
     inkscape:current-layer="layer1"
     showgrid="false"
     inkscape:window-width="1920"
     inkscape:window-height="1138"
     inkscape:window-x="-8"
     inkscape:window-y="-8"
     inkscape:window-maximized="1"
     units="px" />
  <metadata
     id="metadata5074">
    <rdf:RDF>
      <cc:Work
         rdf:about="">
        <dc:format>image/svg+xml</dc:format>
        <dc:type
           rdf:resource="http://purl.org/dc/dcmitype/StillImage" />
        <dc:title></dc:title>
      </cc:Work>
    </rdf:RDF>
  </metadata>
  <g
     inkscape:label="Layer 1"
     inkscape:groupmode="layer"
     id="layer1"
     transform="translate(0,-1022.3622)">
    <path
       inkscape:connector-curvature="0"
       style="fill:#7e7e7e;fill-opacity:1"
       d="m 0,1022.3622 0,30 29.999996,0 0,-30 -29.999996,0 z m 5.04297,5.1465 2.1211,0 1.25586,3.9687 1.42773,-3.9687 2.0293,0 -2.55274,5.8828 0,4.4277 -1.79492,0 0,-4.4277 -2.48633,-5.8828 z m 10.09571,2.3125 c 1.87259,0 2.52734,1.1864 2.52734,2.543 l 0,3.1406 c 0,1.3566 -0.65475,2.541 -2.52734,2.541 -1.91188,0 -2.54102,-1.1844 -2.54102,-2.541 l 0,-3.1406 c 0,-1.3566 0.62914,-2.543 2.54102,-2.543 z m 3.79101,0.2012 1.61133,0 0,5.625 c 0,0.614 0.27387,0.957 0.77148,0.957 0.52381,0 0.77344,-0.3417 0.77344,-0.9414 l 0,-5.6406 1.61133,0 0,7.7968 -1.5332,0 0,-0.8007 c -0.32739,0.6568 -0.75909,1.0273 -1.45313,1.0273 -0.98213,0 -1.78125,-0.6558 -1.78125,-2.2266 l 0,-5.7968 z m -3.79101,1.1836 c -0.49761,0 -0.86524,0.2157 -0.86524,0.9296 l 0,3.5977 c 0,0.6997 0.37935,0.9277 0.87696,0.9277 0.5238,0 0.83789,-0.1994 0.83789,-0.9277 l 0,-3.5977 c 0,-0.7282 -0.3258,-0.9296 -0.84961,-0.9296 z m -7.95508,7.6718 15.65625,0 c 1.46901,0 2.65234,1.1834 2.65234,2.6524 l 0,3.7871 c 0,1.469 -1.18333,2.6523 -2.65234,2.6523 l -15.65625,0 c -1.46902,0 -2.65234,-1.1833 -2.65234,-2.6523 l 0,-3.7871 c 0,-1.469 1.18332,-2.6524 2.65234,-2.6524 z m -1.14063,0.9707 0,1.0157 1.60938,0 0,5.6484 1.29883,0 0,-5.6484 1.60937,0 0,-1.0157 -4.51758,0 z m 9.60743,0 0,6.6641 1.16406,0 0,-0.5176 c 0.15153,0.3784 0.57938,0.666 0.99609,0.666 0.7103,0 1.35352,-0.4528 1.35352,-1.4218 l 0,-2.4825 c 0,-1.0151 -0.64322,-1.4121 -1.35352,-1.4121 -0.47353,0 -0.82562,0.2489 -0.99609,0.4981 l 0,-1.9942 -1.16406,0 z m 6.15429,1.4961 c -1.03231,0 -1.78125,0.4513 -1.78125,1.5957 l 0,2.1231 c 0,1.1443 0.74894,1.5976 1.78125,1.5976 1.0323,0 1.7793,-0.4625 1.7793,-1.5976 l 0,-0.1387 -1.16406,0 0,0.2871 c 0,0.3507 -0.23641,0.5527 -0.61524,0.5527 -0.37883,0 -0.61523,-0.1835 -0.61523,-0.5527 l 0,-1.0996 2.39453,0 0,-1.1719 c 0,-1.1351 -0.747,-1.5957 -1.7793,-1.5957 z m -10.57422,0.1289 0,3.7461 c 0,1.0152 0.57681,1.4414 1.28711,1.4414 0.50194,0 0.81402,-0.2415 1.05078,-0.666 l 0,0.5176 1.10938,0 0,-5.0391 -1.16602,0 0,3.6446 c 0,0.3876 -0.17976,0.6093 -0.55859,0.6093 -0.35989,0 -0.55859,-0.2203 -0.55859,-0.6171 l 0,-3.6368 -1.16407,0 z m 10.57422,0.7657 c 0.37883,0 0.61524,0.2039 0.61524,0.5546 l 0,0.4883 -1.23047,0 0,-0.4883 c 0,-0.3691 0.2364,-0.5546 0.61523,-0.5546 z m -4.41211,0.037 c 0.30306,0 0.5586,0.1949 0.5586,0.5918 l 0,2.3066 c 0,0.3968 -0.25554,0.5898 -0.5586,0.5898 -0.29358,0 -0.57812,-0.194 -0.57812,-0.6093 l 0,-2.2696 c 0,-0.4153 0.28454,-0.6093 0.57812,-0.6093 z"
       id="path4925" />
  </g>
</svg>
