<?xml version="1.0" encoding="utf-8"?>
<!-- Generator: Adobe Illustrator 13.0.1, SVG Export Plug-In . SVG Version: 6.00 Build 14948)  -->
<!DOCTYPE svg PUBLIC "-//W3C//DTD SVG 1.1//EN" "http://www.w3.org/Graphics/SVG/1.1/DTD/svg11.dtd">
<svg version="1.1" id="Слой_1" xmlns="http://www.w3.org/2000/svg" xmlns:xlink="http://www.w3.org/1999/xlink" x="0px" y="0px"
	 width="46px" height="52.577px" viewBox="0 0 46 52.577" enable-background="new 0 0 46 52.577" xml:space="preserve">
<path fill="#ED1C24" d="M40.406,0H5.594C2.518,0,0,2.517,0,5.594v3.803h9.821c2.051,0,3.729,1.497,3.729,3.326
	c0,1.828-1.678,3.325-3.729,3.325H0v5.702h2.988c2.052,0,3.729,1.497,3.729,3.325c0,1.829-1.678,3.326-3.729,3.326H0v6.968h1.679
	c2.052,0,3.729,1.498,3.729,3.326c0,1.83-1.678,3.326-3.729,3.326H0v4.964c0,3.077,2.518,5.594,5.594,5.594h34.813
	c3.077,0,5.594-2.517,5.594-5.594V5.594C46,2.517,43.484,0,40.406,0z M40.819,14.183l-2.577,8.951c-0.343,1.19-1.196,3-1.898,4.02
	L29.9,36.538c-0.7,1.021-2.083,2.468-3.071,3.215l-7.43,5.615c-0.987,0.746-2.631,0.783-3.653,0.084l-2.51-1.723
	c-1.021-0.7-1.283-2.109-0.581-3.132l4.872-7.094c0.702-1.02,2.111-1.28,3.132-0.58l0.3,0.206c1.021,0.7,2.43,0.438,3.131-0.583
	l6.444-9.383c0.7-1.022,0.44-2.43-0.583-3.131l-0.297-0.205c-1.021-0.701-1.283-2.11-0.583-3.131l4.873-7.092
	c0.7-1.021,2.108-1.283,3.132-0.582l2.51,1.724C40.605,11.446,41.161,12.993,40.819,14.183z"/>
</svg>
