<svg width="16" height="14" viewBox="0 0 16 14" fill="none" xmlns="http://www.w3.org/2000/svg">
<path fill-rule="evenodd" clip-rule="evenodd" d="M15.7611 7.51932L14.1991 5.82132C14.0957 5.71945 13.9563 5.66235 13.8111 5.66235C13.6659 5.66235 13.5266 5.71945 13.4231 5.82132L11.8591 7.51932C11.8081 7.56981 11.7676 7.62993 11.7399 7.69618C11.7122 7.76244 11.698 7.83352 11.698 7.90532C11.698 7.97711 11.7122 8.04819 11.7399 8.11445C11.7676 8.18071 11.8081 8.24082 11.8591 8.29132H13.1531C12.9111 9.20067 12.4332 10.03 11.7679 10.6955C11.1026 11.361 10.2734 11.839 9.3641 12.0813C8.30148 12.3593 7.17921 12.3052 6.14822 11.9264C5.11723 11.5476 4.22695 10.8622 3.5971 9.96232L2.5061 10.7133C3.29201 11.8361 4.40293 12.6913 5.68943 13.1638C6.97593 13.6363 8.37628 13.7035 9.7021 13.3563C10.8945 13.0402 11.9758 12.3993 12.8255 11.5051C13.6753 10.6108 14.2602 9.49828 14.5151 8.29132H15.7601C15.8111 8.24082 15.8516 8.18073 15.8792 8.11452C15.9069 8.04831 15.9212 7.97728 15.9213 7.90553C15.9214 7.83377 15.9073 7.7627 15.8798 7.69642C15.8523 7.63013 15.812 7.56995 15.7611 7.51932Z" fill="#55C0A6"/>
<path fill-rule="evenodd" clip-rule="evenodd" d="M4.44009 6.63222C4.49113 6.58173 4.53165 6.52161 4.5593 6.45536C4.58695 6.3891 4.60119 6.31802 4.60119 6.24622C4.60119 6.17443 4.58695 6.10334 4.5593 6.03709C4.53165 5.97083 4.49113 5.91072 4.44009 5.86022H2.98309C3.23097 4.96235 3.70943 4.14494 4.37096 3.4892C5.0325 2.83346 5.85407 2.36219 6.75409 2.12222C7.81676 1.84394 8.93919 1.89806 9.97015 2.2773C11.0011 2.65653 11.8911 3.34266 12.5201 4.24322L13.6121 3.49122C12.826 2.3678 11.7146 1.5121 10.4276 1.03922C9.14055 0.566351 7.73956 0.498996 6.41309 0.846222C5.22989 1.16093 4.15614 1.79524 3.30948 2.67964C2.46283 3.56405 1.87593 4.66443 1.61309 5.86022H0.161093C0.110056 5.91072 0.0695403 5.97083 0.041889 6.03709C0.0142376 6.10334 0 6.17443 0 6.24622C0 6.31802 0.0142376 6.3891 0.041889 6.45536C0.0695403 6.52161 0.110056 6.58173 0.161093 6.63222L1.79909 8.26922C1.90254 8.37109 2.04191 8.42818 2.18709 8.42818C2.33228 8.42818 2.47164 8.37109 2.57509 8.26922L4.44009 6.63222Z" fill="#55C0A6"/>
</svg>
